<?xml version="1.0" encoding="utf-8"?>
<!-- Generator: Adobe Illustrator 19.1.0, SVG Export Plug-In . SVG Version: 6.00 Build 0)  -->
<svg version="1.1" id="Ebene_1" xmlns="http://www.w3.org/2000/svg" xmlns:xlink="http://www.w3.org/1999/xlink" x="0px" y="0px"
	 viewBox="0 0 1000 1000" style="enable-background:new 0 0 1000 1000;" xml:space="preserve">
<style type="text/css">
	.st0{fill:#FFFFFF;}
	.st1{fill:#4E3C8A;}
	.st2{fill:#F4E600;}
	.st3{fill:#F08467;}
	.st4{fill:#4487C7;}
	.st5{fill:#AACE7D;}
	.st6{fill:#AB569C;}
	.st7{fill:#AACF7D;}
	.st8{fill:#EC6620;}
	.st9{fill:#ED8061;}
	.st10{fill:#F0812F;}
	.st11{fill:#8984BF;}
	.st12{fill:#F18769;}
	.st13{fill:#4887C7;}
	.st14{fill:#F3B9D6;}
	.st15{fill:#F5E503;}
	.st16{fill:#604E97;}
	.st17{fill:#564390;}
	.st18{fill:#F1B4D2;}
	.st19{fill:#E66224;}
	.st20{fill:#ADD09F;}
	.st21{fill:#5C94CF;}
	.st22{fill:#FEEDDE;}
	.st23{fill:#8AC9AE;}
	.st24{fill:#FFF2D1;}
	.st25{fill:#6398D1;}
	.st26{fill:#DDEEE4;}
	.st27{fill:#6D9CD3;}
	.st28{fill:#EDA8CB;}
	.st29{fill:#CEC6D5;}
	.st30{fill:#635094;}
	.st31{fill:#AB559C;}
	.st32{fill:#4E3C89;}
	.st33{fill:#4F3C89;}
	.st34{fill:#A8559C;}
	.st35{fill:#4D3B88;}
	.st36{fill:#4D3E84;}
	.st37{fill:#4A3C82;}
	.st38{fill:#FAE81F;}
	.st39{fill:#F6E519;}
	.st40{fill:#F1E21E;}
	.st41{fill:#FCEB23;}
	.st42{fill:#EF7D1E;}
	.st43{fill:#F08062;}
	.st44{fill:#F08163;}
	.st45{fill:#EF7D20;}
	.st46{fill:#458BCA;}
	.st47{fill:#6DBF9D;}
	.st48{fill:#4C3B88;}
	.st49{fill:#4588C8;}
	.st50{fill:#4E3D87;}
	.st51{fill:#E2DF3E;}
	.st52{fill:#4686C4;}
	.st53{fill:#BDC37D;}
	.st54{fill:#ACCF7F;}
	.st55{fill:#A8CD76;}
	.st56{fill:#A5CB78;}
	.st57{fill:#A9529A;}
	.st58{fill:#A6CC77;}
	.st59{fill:#FFD008;}
	.st60{fill:#EC671E;}
	.st61{fill:#EC631F;}
	.st62{fill:#ED6A22;}
	.st63{fill:#F08567;}
	.st64{fill:#F18668;}
	.st65{fill:#EF8364;}
	.st66{fill:#75BF9C;}
	.st67{fill:#A3CD85;}
	.st68{fill:#F07F1D;}
	.st69{fill:#ED791D;}
	.st70{fill:#FDE3CE;}
	.st71{fill:#8380BC;}
	.st72{fill:#8783BE;}
	.st73{fill:#8884BE;}
	.st74{fill:#4187C7;}
	.st75{fill:#4488C8;}
	.st76{fill:#F1B5D3;}
	.st77{fill:#4C3982;}
	.st78{fill:#453888;}
	.st79{fill:#56448F;}
	.st80{fill:#4B3985;}
	.st81{fill:#53418C;}
	.st82{fill:#ECA7CA;}
	.st83{fill:#E9A4C7;}
	.st84{fill:#EC6518;}
	.st85{fill:#FFCF2A;}
	.st86{fill:#EC639F;}
	.st87{fill:#A6CC76;}
	.st88{fill:#4987C7;}
	.st89{fill:#FECC0F;}
	.st90{fill:#4687C7;}
	.st91{fill:#4185C5;}
	.st92{fill:#FECA0C;}
	.st93{fill:#FACA0C;}
	.st94{fill:#F59C1A;}
	.st95{fill:#F07F1C;}
	.st96{fill:#A6CA77;}
	.st97{fill:#AC569C;}
	.st98{fill:#6EBFA0;}
	.st99{fill:#70C09E;}
	.st100{fill:#8781BC;}
	.st101{fill:#8480BC;}
	.st102{fill:#4A3985;}
	.st103{fill:#4A3986;}
	.st104{fill:#4E3D89;}
	.st105{fill:#4B3A86;}
	.st106{fill:#F2E500;}
	.st107{fill:#EEE418;}
	.st108{fill:#EEE123;}
	.st109{fill:#FECC17;}
	.st110{fill:#FECE08;}
	.st111{fill:#F9CA09;}
	.st112{fill:#A0CA7E;}
	.st113{fill:#F8C90F;}
	.st114{fill:#F8CB1D;}
	.st115{fill:#FDCD0B;}
	.st116{fill:#ED6A23;}
	.st117{fill:#EB6118;}
	.st118{fill:#ED6922;}
	.st119{fill:#EC6922;}
	.st120{fill:#EFACCE;}
	.st121{fill:#99C668;}
	.st122{fill:#4B3A85;}
	.st123{fill:#4C3B86;}
	.st124{fill:#4A3B84;}
	.st125{fill:#4F3E89;}
	.st126{fill:#4C3A88;}
	.st127{fill:#EFABCD;}
	.st128{fill:#F3E600;}
	.st129{fill:#AACE7C;}
	.st130{fill:#AACF7E;}
	.st131{fill:#A7CD7E;}
	.st132{fill:#F08485;}
	.st133{fill:#FECB0F;}
	.st134{fill:#FACB06;}
	.st135{fill:#8B86C0;}
	.st136{fill:#503E8B;}
	.st137{fill:#FFD118;}
	.st138{fill:#ADD082;}
	.st139{fill:#F08788;}
	.st140{fill:#F18567;}
</style>
<g>
	<g>
		<path class="st0" d="M4,499.1C4,337.1,4.1,175,3.6,13C3.6,1.1,6-1.2,17.9-1.2c325.4,0.4,650.8,0.4,976.2,0
			c11.8,0,14.2,2.4,14.2,14.2c-0.4,325.4-0.4,650.8,0,976.2c0,11.8-2.4,14.2-14.2,14.2c-325.4-0.4-650.8-0.4-976.2,0
			c-11.8,0-14.3-2.4-14.2-14.2C4.1,825.8,4,662.5,4,499.1z"/>
		<path class="st1" d="M666.4,959c-27.9,7.2-50.1-6.3-68.7-23.1c-37.6-34.1-62-76.6-70.4-127.4c-1.3-7.8-2.8-15.6-4.2-23.4
			c-2.5-6-7-11.2-5.6-15.7c1,2.3,1.9,7-2,11.5c-9.1,11.8-8.1,27.2-14.7,39.9c-4.9,3.8-3.5,14.6-13.8,12.3
			c-14.3-18.3-20.7-39.9-26.1-61.9c0.5-10.5,11.6-23.8-7.7-29.1c-1.7-0.8-2.9-2.1-3.8-3.7c-6-12.7,2.2-25.9-1.3-39
			c-1.3-4.9,4.8-7.1,9.3-8.6c11.3-3.9,23.1-5.7,34.8-6.5c62.9-4.6,125.3-15.5,188.7-14.9c17.7,0.2,19.1,0.9,20,28.2
			c-0.7,7.6-1.1,15.2,1.5,22.6c1,8.1,2.3,16.4-5.2,22.5c-15.9,2.3-24.8,15.4-18.2,31.8c6.9,17.1,4.2,33.2,1.9,50.1
			c-3.2,22.7-8.4,45.1-8.9,68.2c0,7.9-0.2,15.9,2.4,23.6c2.7,12.9-2,25.1-4.1,37.5C669.2,955.8,668,957.5,666.4,959z"/>
		<path class="st2" d="M463.8,769.9c6.8,21.5,14.9,42.4,24.8,62.7c2.6,2,6,3.6,3.6,7.8c-1.2,1.3-2.5,2.7-3.7,4
			c-11.8,15.6-21.3,33-36.5,45.9c-9.5,8.1-27.6,3.8-31.8-8c-5.9-16.7-26.3-29.9-42.8-25.6c-7.7,2.1-12.5-1.4-18.4-3.4
			c-6.8-2.7-13.5-5.8-19.4-10.2c-3.7-2.8-7.5-5.5-8.1-10.6c2.9-10.5-6.2-11.4-12-14.7c-11.1-6.1-22.6-10.8-35.7-9.4
			c-5-0.3-9.6-1.2-11.8-6.4c-1.3-4.6,0.2-9.1,1-13.6c3.2-19.3-3.7-28.6-23.1-25.2c-20.9,3.6-37.8-0.9-52.5-14.9
			c-7.9-7.5-14.7-0.3-22.1-0.2c-8-0.7-14.6-5.1-21.8-8.2c-10.4-7.2-24.5-9.2-31-22c12.5-16,30.3-8.1,45.9-10.1
			c13.1-1.1,26.6,3.9,39.5-2.1c13.5-1.8,26.5-8.7,40.6-3.2c6.9,7.3,14.3,11.3,23.6,3.6c8-6.6,17.3-7,26-2.8
			c12.9,6.2,25.3,5.6,38,0.1c8.7-3.8,18.1-3.1,27.2-3.4c11.3-0.4,22.1-2.7,31.8-8.7c2.8-0.9,5.6-1.1,8.5-0.6
			c10.1,9.7,27,1.5,36.3,13.6c7.6,11.1,7.7,24.7,12.2,36.9l0.1,0.3C462.1,748.5,462.1,759.6,463.8,769.9z"/>
		<path class="st3" d="M884.4,540c19.2,21.6,41.3,40.5,56.1,66.2c44.6,77.2,59.5,158.1,35.2,245.2c-8.1,29-13.4,58.9-20,88.3
			c-11.3-0.8-16.9-6.8-16.5-18.2c5.2-4.7,0.8-8-1.8-11.5c-23.5-30.2-49.2-58.6-74.6-87.2c-42.4-47.8-83.2-97-127.1-143.6
			c-11.4-12.1-6.4-25.1,14.4-42c1.5-1.1,3.1-2.1,4.7-3c16.9-8.8,32.7-19.4,49.2-28.7c6.9-3.9,13.5-8.7,20.9-0.3
			c4.3,4.9,9,3.5,13.7-0.5c7.2-6.1,12.6-12,3-20.4c0.9-1.6,2-3,3.4-4.2c5.6-3.9,12.5-6,16.4-12.1c2.1-2.8,4.3-5.5,7-7.6
			c3.7-3.2,9.3-5.1,7.9-11.7c-0.9-2.4-1.5-4.9-1.3-7.5c0.5-1.8,1.5-3.1,3-4.1C880.7,536.6,883.3,536.7,884.4,540z"/>
		<path class="st4" d="M670.5,42.2C708,32.3,745,18.8,784.9,23.3c1.9,1.9,1.8,3.6-0.3,5.3c-5.6,3.9-12.5,3-18.6,4.9
			c-7.2,3.8-6.8,10.8-6.5,17.2c1.4,36.6-6,72.8-4.6,109.5c-0.2,2.3-0.6,4.5-1.2,6.7c-4.6,18.1-1.3,36.5-2.2,54.8
			c-3.7,28.8-1.4,58.2-8.1,86.8c-2.1,2.6-4.8,4.3-8,5.2c-7.8-0.1-8.8-5.7-6.5-10.7c3.6-8,2.7-16.6,4.2-24.1
			c-1.4,2.2-0.9,5.6-1.1,8.8c-0.3,4.5,0.6,10.2-5.9,10.3c-5.9,0.1-7.7-5.1-7.2-9.7c1.2-11.1-5.1-20-7.6-30
			c-3.4-11.1-2.8-21.8,0.9-33c9-27.2,3.7-55.2,1.9-82.6c-1.1-16.9,4.5-33.8-1.6-50.9c-3.1-8.6,7.4-14.8,10.9-23.9
			c-12.4,11.1-26.8,12.3-40.6,8.2c-14.1-4.2-25.6-1.1-37.7,5.5c-12.8,6.9-25.3,14.4-38,21.4c-2.9,1.6-6.6,2.9-8,5.7
			c-16.1,31-50.4,51.3-52.6,90.3c-8.3,4.1-10.8,10.8-8.8,19.6c0,1.8-0.3,3.6-0.8,5.4c-3.5,8.6-5.6,16.3,7.4,18.6
			c6.2,1.1,9.4,6.4,12.9,11c3,4,6.8,7.1,11.6,8.9c7,3.4,15.4-1.5,22,4c1.3,1.3,2.3,2.8,3,4.4c10.9,12.1,27.6,14,40.1,25.1
			c21.7,19.2,48.8,31.6,73.3,47.4c8.1,5.2,16.6,15.5,22.9-2.2c1-2.7,4.5-1.2,6.3,1.1c3.7,7.9,3,16,1.2,24.1c-1.2,4-3.1,7.6-6.2,10.5
			c-7,4.1-12.6-0.1-18.2-3.4c-20.9-12.4-42-24.6-62.9-37.1c-4.8-4.2-9.9-8-14.4-12.6c-6.1-7.9-15.5-10.9-23.9-15.3
			c-1.6-0.8-3.1-1.8-4.6-2.8c-14.5-10.7-30.3-19.5-45.9-28.3c-1.6-0.8-3.1-1.8-4.6-2.8c-4.9-3.8-10.2-6.8-15.8-9.5
			c-1.6-0.8-3.1-1.7-4.5-2.7c-5.5-4.5-11.8-7.4-18.4-9.7c-3.5-1.6-6.5-3.7-8.9-6.8c-1.2-1.6-2.1-3.3-2.9-5.1
			c-5-26.8,9.6-49.1,18-72.5c5.6-15.8,16-29.8,28.7-41.4C564,111.4,576.8,98,591,85.9l-0.2,0.1c9.3-5.8,19.1-10.8,28-17.2
			C635.1,58.1,652.2,49.1,670.5,42.2z"/>
		<path class="st5" d="M238.1,511.1c-74.3-11.1-126.9-52.9-166.7-114.9c-24.3-37.8-32.6-79.9-40-122.7c1.5-1.6,3.3-2.4,5.5-2.5
			c13.3,1.7,26.8,2.4,38.8,9.3c-8.4,9.7-11.2,9.8-27.9,1.4c7.6,5.1,13,6.9,25,6.9c15.9,0.1,31.1,3,45.7,9.3c3.5,2.4,5.8,5.5,5.5,10
			c-8,9.6-19.4,6.5-29.5,7.7c-12.7,1.6-15.3,6.7-10,18.5c13.1,29.6,30.2,57,46.2,84.8c15.7,27.2,45.9,38.2,75,47.7
			c7.6,2.5,11.1-1.7,11.5-9.1c1.1-27,8.3-51.7,26.2-72.7c2.6-3.1,3-7.1,2.9-11.2c-0.5-21.7,5.7-27.8,28.9-28.6
			c-0.7,20.4-6.5,39.9-13.6,58.6c-10.9,28.8-15.6,59.4-26.5,88.2c-2.7,7,11.2,6.1,8.4,14.2C243,509.2,242.6,512.3,238.1,511.1z"/>
		<path class="st6" d="M940,920.3c2.3,8.8,9.2,14,15.7,19.4c0.1,0.7,0.3,1.3,0.3,2c1.6,34.6,1.4,35.5-32,28.2
			c-29.4-6.4-57.6-0.7-86,5.1c-58.8,11.9-115-3.8-171.6-16c-0.3-1.2-0.3-2.4,0.2-3.6c2.4-2,5-3.6,8.2-4.1
			c20.4,1.8,40.6,5.2,60.6,9.3c34.8,7.1,69.8,9.2,104.3,1.3c29.6-6.8,58.8-3.9,88.3-3.2c4.4,0.1,9.1,1.5,13.6-4
			c-7.2-5.1-12.8,0.1-18.5,1.1c-17.6,3-35,6.8-47-13.2c-5.6-9.4-14.3-15.5-26.3-6c-11.5,9.1-24.3,11.2-35.4-1.2
			c-7.7-8.6-6.7-30.4,1.4-41.1c2.8-3.7,6.7-6.4,10.2-9.4c29.6-25.2,31-24.3,55.1,6.2c9.4,11.9,18.8,29.3,40,19.9
			c7.5-1.9,13.8,0,18.5,6.4C939.6,918.4,939.8,919.4,940,920.3z"/>
		<path class="st7" d="M122.7,562c31.6-24.9,68.7-34.8,107.8-39.4c2.8-1.8,5.7-1.8,8.5,0.1c0.7,2,0.6,3.9-0.4,5.8
			c-16.2,10.2-22.6,25.8-26.8,43.9c-5.9,25.7-15.7,50.3-21.2,76.2c-1.4,6.5-3.5,13.9-11.3,14.6c-8,0.8-10.5-6.9-13.5-12.6
			c-10.4-19.8-21.5-39.2-30.3-59.8c-2.8-6.5-5.3-13.7-12.9-16.7C116.6,570,118.5,565.9,122.7,562z"/>
		<path class="st8" d="M441.6,905.5c-21.5,25.4-50,42.4-79.8,53.3C296,983,228.3,996.2,158.6,972.5c-18.1-6.1-37.7-6-55.4-13.8
			c-1-1.7-0.9-3.4,0.4-5c6.4-6.5,12-10.1,21.8-3.2c14.1,9.9,32.1,10.7,48.5,14c14.6,2.9,19.1-10,21.3-22.3
			c7.6-2.9,12.8,1.4,18.1,5.7c8.6,9.2,20,8.6,31.2,11.5c30.8,8.1,56.3-13.6,85.4-10.8c7.2,0.7,4.3-6.8,6.9-10
			c13-5.6,27.6-8.7,35-22.9c12.7,3,24.3-0.8,35.8-5.6c6.1,1.6,11.3-0.7,16.7-4c-1.6-5.4-11.5-7.2-7.4-15.3
			C429.6,888.2,437.3,894,441.6,905.5z"/>
		<path class="st9" d="M75.2,281.1c-13.3-2.5-26.5-5-39.8-7.6c-1.4-2.1-1.2-4.1,0.5-5.9c11.5-7,23.1-0.1,34.7-0.2
			c67.9,11.6,136.1,22.2,204.8,35.4c-3.1-3.1-5.3-5.2-7-7.8c-21.1-56.3-53.1-107.5-78.8-161.6c-10.9-23-18.9-47.5-32.6-69.3
			c-3.8-6-6.1-13.3-4.1-20.9c2.2-3.9,5.3-5.9,9.9-5.1c0.7-0.3,1.4-0.2,2.1,0.2c1.9-0.1,3.6,0.6,4.9,1.9c11.5,18,18.9,38,27.6,57.3
			c0.9,1.7,1.6,3.5,2.3,5.3c33.5,62.6,59.9,128.5,92.4,191.5c3.3,6.4,6.6,13,3.4,20.6c-10.3,11.1-22.1,4.7-33.6,3.1
			c-4.3-0.4-8.6-0.9-12.9-2.1c-49.4-8.3-98.8-17-148.1-26C91.9,288.6,82.4,288,75.2,281.1z"/>
		<path class="st10" d="M877.9,538.3c-0.3,1.5-0.6,3-0.9,4.4c-6.7,5-12.9,1.4-18-2.2c-32.8-22.8-69.1-33.4-109-32.6
			c-3.3,0.1-6.5-0.9-9.5-2.3c-6.8-4.6-7.3-10.8-4.6-17.8c17.9-15.3,40.9-13.4,61.8-16.7c23.9-3.8,46.4-9.4,67.1-22
			c14.5-7.9,28.1-16.8,40.4-30.4c-16.1-9.5-33.6-14.5-50.6-20.4c-23.6-8.2-46.5-18.4-70.3-25.9c-7.2-2.3-15.6-4.2-18.9-12.8
			c-0.1-3.6,2.1-5.2,5.2-6.3c7.5-1.3,14.2,1.7,21,4.1c40.1,14.3,80,29.1,119.9,43.9c4.9,1.8,9.9,3.6,13.3,8c1.2,1.9,1.5,3.8,0.8,5.9
			c-29,37-69.1,54.7-113.4,64.8c-11.4,2.6-23.6,1.6-34.7,6.4c-1.4,2.6-3.8,3.8-6.6,4.4c-3.1,0.7-6.2,0.5-9.3,0.9
			c-2.6,0.4-4.1,1.7-1.8,0.4s-0.3,3.7,0.9,1.3s3.4,2.4,2,0.2c34.8,3.4,68.4,10.1,98,29.7l-0.2-0.1
			C866.5,528.2,876.9,527.7,877.9,538.3z"/>
		<path class="st11" d="M164.8,38.3c26.4-12.4,54.7-13.7,82.4-9.7c39.7,5.7,79.5,12.5,118.1,22.9c41.7,11.3,72.8,38,91.4,78
			c-4.5,3.3-8.2,0.6-12-1.4c-2.8-2.2-4.7-5.2-7-7.9c-1.3-1.3-2.5-2.6-3.7-4C406.3,73.5,362.5,61,316.1,53.6
			c-28.5-4.5-56-14.8-85.4-13.1c-12.8,3.1-25.8,3.8-38.8,3.6c-3.8,0.1-7.6,1.1-11.3,1.7c-1.9,0.2-3.8,0.2-5.6-0.1
			c-4-0.8-5.8-4.5-8.7-6.6L164.8,38.3z"/>
		<path class="st12" d="M162.7,38.2c-2.6,1.5-5.3,3.1-7.9,4.6c-7.6,9.5-18.4,9.1-29,9.4c-10,0.2-19.7-1.5-29.5-2.9
			c-20.2-2.8-23.8-0.7-26,19.1c-3.6,32.3-10.9,63.7-19.3,95c-8.1,24.5-9.6,49.9-9.5,75.5c0,10.3,1.8,21.1-5.7,30.1
			c-0.1,1.5-0.2,3.1-0.3,4.6c-1.3,0-2.7-0.1-4-0.1c-7.2-36.9-4.5-73.3,5.6-109.3c11-39.4,20.7-79.2,22.1-120.4
			c0.2-6.7,0.1-14.4,10.7-11.5c29.8,8.2,59.7,9.6,90.1,3.5C160.7,35.6,161.8,37.3,162.7,38.2z"/>
		<path class="st13" d="M444.5,126.2c4,1.1,8.1,2.3,12.1,3.4c22.8,29.5,30,63.8,31.3,100c-2.4,2.1-5.2,2.4-8.2,1.8
			c-12.4-6.9-26.5-11.5-34.6-24.4c-2.3-6.9-7-13.3-5.6-21.2c8.1-8.1,14.6,9,22.6,1.5c1.5-26.6-11.9-41.6-37.3-41.7
			c-4.6,0-9.2,0.3-12.8-3.5c2.2-12.3,14.3-9.7,21.6-14.3C437.2,126.5,440.7,125.7,444.5,126.2z"/>
		<path class="st14" d="M925.5,415.4c-1-0.9-1.4-2-1.3-3.4c-3.1-4.5-1.8-8.9,1.3-12.5c16.8-19.8,24-44.1,31.6-68.1
			c2.4-6,2.3-12.4,2.9-18.7c0-21.9,6.6-42.8,9.5-64.3c3.9-28.1,3.9-55.1-3-82.4c-1.3-5.2-1.5-10.5,0.8-15.5c0.9-1.7,2-3.3,3.4-4.6
			c1.8-1.1,3.5-1,5.2,0.2c20,77.6,1.2,152.1-19.6,226C951.6,388.8,942.6,405.8,925.5,415.4z"/>
		<path class="st15" d="M441.6,905.5c-7.5-6.1-14.8-12.5-24.8-14.5c-22.8-8-44.4-18-61-36.6c0-3.5,3.2-4.3,5.2-6.1
			c4.9-0.8,12,16.9,14.9-1.7c8.8,3.1,17.9,5.8,26.4,9.6c5.3,2.4,9.3,6.8,16.2,5.3c7.8-1.6,9.8,4.7,7.6,9.7
			c-5.2,11.9,3,14.5,10.4,19.5c11.3,7.6,13.2-4.2,18.8-7.9c14.5-9.7,17.2-29.8,33.2-38.4C480.5,870.7,460.3,887.5,441.6,905.5z"/>
		<path class="st16" d="M97,958.9c-17.7-1.4-35.5-2.7-53.2-4.1c-6.4-0.5-13.3-1.9-10.1-10.2c18.2-46.7,1.5-92.6-3-138.6
			c-2.9-29.7,3.2-57.6,8.8-86c2.4-0.4,4.4,0.4,5.9,2.3c1.1,2,1.7,4.1,1.8,6.4c-9.5,45.2-7.4,90.1,3.6,134.8
			c4,16.1,3.3,32.8,0.9,49.1c-4.8,32.6-5,32.6,28.8,33.5c4.3,0.2,8.6,0.6,12.7,2.1c3.1,1.3,5.4,3.4,6.8,6.5
			C100.6,957.2,99.7,958.6,97,958.9z"/>
		<path class="st17" d="M785.4,26.5c0.1-1.1,0-2.2-0.4-3.2c37.2-4.3,71,11.8,106.4,18.5c24.6,4.7,49.1,10.1,74.1,10.5
			c14.2,0.2,19.5,3.3,13.8,18c-2.6,6.6-2.5,14.2-3.6,21.3c-4.2,17.9,1,36.4-2.8,54.3l-0.5,0.7c-2.7,1.7-5.4,1.7-8.1,0.2
			c-1.2-1.6-1.8-3.4-1.9-5.4c0.2-4,0.7-7.9,0.7-11.9c0.1-10.4-0.1-20.7-0.1-31.1c0.2-12.3-0.4-24.8,8-34.7
			c-35.2,1.6-69.9-8-104.8-15.8c-2-0.4-3.9-1.1-5.8-1.8c-21.5-6.2-42.8-12.8-65.4-13.7C790.9,32.3,784.7,34.5,785.4,26.5z"/>
		<path class="st18" d="M43.3,720.6c-1.3-0.1-2.6-0.3-3.8-0.6c7.7-35,10.3-71.2,28.4-103.5c10.9-19.3,25.8-34.4,43.4-47.3
			c3.4,2.5,4.9,6,5.2,10.1c-0.5,3.1-2.3,5.3-4.6,7.3c-29.4,27.3-48.4,59.9-52.5,100.6c-1.1,10.8-1.6,22.6-10.9,30.9
			C47,719.3,45.3,720.1,43.3,720.6z"/>
		<path class="st19" d="M97,958.9c-0.3-1.5-0.7-3-1-4.5c-4.2-24.2-2.5-48.6-2.2-72.9c0.6-54.7-2.5-109.4,1.7-164
			c1-2.4,2.8-4.2,5.1-5.5c4.4-0.6,7.3,1.2,8.9,5.3c6.4,18.3-1.1,36.4-1.1,54.7c0.2,57.8,1.5,115.5-0.6,173.3
			c-0.8,3.7-1.9,7.2-4.3,10.1c-0.1,1.1-0.2,2.2-0.3,3.4C101.1,958.8,99.1,958.9,97,958.9z"/>
		<path class="st20" d="M114.5,578.7c-1-3.1-2.1-6.3-3.1-9.4c2.9-3.8,6.2-7,11.3-7.3c0.5,2.9-4.1,5.9,0.3,8.6
			c20.2,32,35.5,66.6,53.1,100.1c2.2,4.1,2.6,8.8,0.8,13.3c-1,1.7-2.5,2.7-4.5,3c-13.8-10.6-15.5-28.8-26.1-41.5
			c-1-1.5-1.9-3.2-2.6-4.9c-4.6-12.8-9.2-25.5-19.4-35.3c-2.6-2.6-4.2-5.8-5.2-9.4C116.6,590.4,117.7,584,114.5,578.7z"/>
		<path class="st21" d="M555.6,126.1c-23.4,27-37.6,58.2-45.3,93.1c-1.8,8.3-1.3,15.4,0.8,23.1c-3.3,1.4-6.3,1-8.6-2
			c-0.3-7.5-1.6-15,0.9-22.4c10.6-33.3,18.9-67.8,47.1-92.2C552.4,124.1,554.1,124.3,555.6,126.1z"/>
		<path class="st22" d="M769.8,487.2c2.5-0.2,5.1-0.4,7.6-0.6c15.8,14.4,38.1,10.8,56,20.1c9.6,5,21.8,5.4,27.3,17
			c-34-14.7-68.4-28-106.4-26.5c-4.3-6.5,0.6-7.1,5.1-7.7C762.9,488.8,766.8,490.2,769.8,487.2z"/>
		<path class="st23" d="M504.8,240.9c2.1,0.4,4.2,0.9,6.3,1.3c0.2,1.2,0.4,2.5,0.6,3.7c2,5.2,1.8,10.3-0.2,15.4
			c-2.3,6-6.3,10.1-13.1,10.3c-6.8,0.2-11.8-3.7-13.2-9.8c-2.6-10.7-7.8-21.1-4.8-32.6c2.5,0.1,5,0.2,7.5,0.3c1.4,2.5,2.8,5,4.1,7.6
			c2.3,8.3,8.4,15.8,4.9,26.4C500.4,255.4,497.7,246.5,504.8,240.9z"/>
		<path class="st24" d="M238.2,523.4c-2.6-0.3-5.2-0.6-7.8-0.9c-2.4-7.1,19.2,1.8,7.7-11.5c1.2-1.2,2.5-2.4,3.7-3.5
			c0.7-0.8,1.5-1.7,2.2-2.5c2.3-1.3,4.8-2.3,7.4-2.4c7.5-0.4,15.9-0.2,18.1,8.2c2.6,9.7-6.4,11.3-13.1,13.6c-1.9,0.6-3.8,1-5.7,1.6
			C246.2,526.9,242,526.4,238.2,523.4z"/>
		<path class="st25" d="M555.6,126.1c-1.7-0.2-3.4-0.3-5.1-0.5c10.9-15.9,22.7-30.9,40.5-39.8C579.2,99.3,567.4,112.7,555.6,126.1z"
			/>
		<path class="st26" d="M504.8,240.9c-3,6.8,2.5,16-6.2,21.7c-8-7.1-6.7-16.4-6.6-25.4c2.6-0.5,6.4,10.5,7.9-0.8
			c0.9-6.3-2.3-13.3,3.5-18.6C503.9,225.5,504.3,233.2,504.8,240.9z"/>
		<path class="st27" d="M670.5,42.2c-17.1,9.5-34.2,19-51.3,28.4c-1.9,1.8-3.6,1.6-5.1-0.6C631,57,648.4,44.9,670.5,42.2z"/>
		<path class="st28" d="M972.8,146c0.5-18.2-4.4-36.6,2.8-54.4c0.1,18.1,0.2,36.3,0.2,54.4C974.9,146,973.9,146,972.8,146z"/>
		<path class="st25" d="M614.1,70.1c1.7,0.2,3.4,0.4,5.1,0.6c-8.6,6.6-16.4,14.9-28.4,15.3C596.3,77.4,604.8,73.1,614.1,70.1z"/>
		<path class="st22" d="M877.9,538.3c-5.8-4.9-11.6-9.9-17.4-14.8c11.1,0.9,19.9,5.2,23.9,16.5C882.2,539.4,880.1,538.9,877.9,538.3
			z"/>
		<path class="st29" d="M515.5,780.9c0-5.2,0-10.4,0-15.6c1.1-0.3,2.2-0.5,3.3-0.8c1.4,6.9,2.9,13.7,4.3,20.6
			C520.6,783.7,518,782.3,515.5,780.9z"/>
		<path class="st30" d="M492.3,840.4c-1.2-2.6-2.4-5.2-3.6-7.8c4-3.9,8.1-7.8,12.1-11.8C499.8,828.1,498.1,835.2,492.3,840.4z"/>
		<path class="st31" d="M694.8,741.3c6-7.3,3.2-15.9,3.7-24c-1.9-8.6,3.2-17,1-25.6c4.9-9.1,2.8-19.6,5.3-29.2c1.3-1.4,3-2,4.9-1.9
			c6.4,3.9,10.1,10.7,16.3,14.7c27.5,27,50.1,58.4,77.2,85.9c5.1,5.1,12.2,11.1,6.4,20.4c-5.1,1.2-9.3-1.3-12.3-4.7
			c-9.5-10.6-20.5-14.9-35-12.7c-9.5,1.5-17.4-3.6-24-11c-10.4-11.7-15.4-10.4-20.4,4.3c-2.1,6.3-2.2,12.9-2.9,19.4
			c-0.9,8.1-2.4,17-12.4,17.3c-10.1,0.2-11.7-8.7-12.9-16.8c-0.4-2.6-0.5-5.2-0.6-7.9C689.3,759.7,687.1,749.5,694.8,741.3z"/>
		<path class="st32" d="M708.5,661.7c-4,8.9,5.5,20.8-6,28.1c-3.9,1.2-1.2,6-4.1,7.7c-0.6-24.4-13.3-21.4-33.4-21.4
			c-36,0-72.2,0.8-106.9,7c-25.4,4.5-52.8-2.4-76.5,12.1c-1,0.6-3.4-1.1-5.1-1.4c-15.2-2.4-20.2,3.3-20.9,17.4
			c-0.5,9.9-4.8,19.7-3.5,30.1c-5.2-12-10.4-24-15.6-36c-1.7-7.1-9.1-12.9-4.9-21.4c12.3-16.1,31.7-8.9,47.2-14.6
			c44.6-1.3,88.9-6.5,133.4-9.1c5.9-0.3,11.8-0.1,17.5-2.2c16.4-3.6,33.2,0.3,49.6-3.2c7-1.8,14.2-2.2,21.4-2.9
			c3.2,0,5.9,1.1,7.6,3.9C709,657.8,709.1,659.7,708.5,661.7z"/>
		<path class="st33" d="M694.8,741.3c-0.2,10.3-0.4,20.7-0.6,31c-4.3,7.8-0.1,15.9-0.5,23.8c-3.1,10.3-0.8,21.7-6.2,31.5
			c-4.2,6.2-4.2,13.1-3,20.2c0.2,3.6-1.2,6.8-2.7,10c-3.6,6.4-1.8,13.1-1.1,19.7c-1,7.1-0.4,15-8,19.4c-3.6,0.3-4.3-3-6.1-4.9
			c4-29.2,8.4-58.3,11.6-87.5c0.9-8.3,1.4-16-4.7-25.2c-8-11.8,0.7-27.4,5-40.1C681.7,729.9,688.6,744.4,694.8,741.3z"/>
		<path class="st34" d="M678.7,856.2c0.8-2.9,1.6-5.7,2.4-8.6c-0.1-6.4-2.2-13,1.5-19.2c6.9-9.6,0.3-22.5,7.7-32
			c7.2,9,8.6,19.4,5.4,29.8c-5.2,16.6-4,34-7.7,50.8c-1.9,8.8-0.3,16.9,6.7,23.6c5.4,5.2,7.2,12.5,1.1,17.5
			c-12.1,9.9-13.7,25.1-21.1,37.4c-2.7,0-5.4,0.1-8,0.1c1.3-13.3,2.5-26.6,3.8-39.9c-2.3-6.4-3.2-12.9,0.6-19.1
			c6.2-5.7,3.7-14.1,6.4-20.9C676.9,869,674.9,862.4,678.7,856.2z"/>
		<path class="st35" d="M637.5,707.2c-2.8,0.6-4.4,1.4-5.3,1c-8.2-3.7-21.1,1.1-24.1-12c-1.2-5,3.5-6.9,7.7-6.3
			c12.4,1.7,29.9-1.4,33.7,13.1C653.9,719.9,639.7,702.8,637.5,707.2z"/>
		<path class="st32" d="M463.8,769.9c-6.1-8.5-9.4-18.2-11.6-28.4c4.8-1.2,4.9-11.6,7.4-8.7c6.3,7.3,11.8,16.7,10.3,27.3
			C469.4,763.7,465.9,766.7,463.8,769.9z"/>
		<path class="st32" d="M476.1,714.4c-0.6,3.2,1.3,8.7-4.4,8.8c-5.8,0.2-7.1-4.9-7.2-9.7c0-4.2-1.7-10.6,5.2-10.2
			C474.8,703.7,476.1,709.2,476.1,714.4z"/>
		<path class="st36" d="M698.4,697.5c1.9-2.3-4.2-8.9,4.1-7.7c-0.4,9.3,0.7,18.9-4.1,27.5C690.8,710.7,695.7,704.1,698.4,697.5z"/>
		<path class="st37" d="M671,896.4c-0.2,6.4-0.4,12.8-0.6,19.1c-6.8-7-2.5-15.7-3.7-23.6C668.1,893.5,669.5,894.9,671,896.4z"/>
		<path class="st38" d="M105.8,718.2c-0.7-1.9-1.4-3.8-2.1-5.6c1-8.4,8.1-8,13.4-8.1c19.7-0.3,38.9-5,58.6-5.5
			c6.5-0.1,12.9-0.9,19.3-2.4c65.8-4.1,131.4-8.8,196.9-15.9c9.5-0.6,19,0.3,28.6-0.7c2.1-0.3,4.2-0.1,6.2,0.4
			c3,1.8,4.1,4.5,3.1,7.9c-6.8,8.9-15.5,9.4-25,5.3c-2.6,0-5.3,0-7.9,0c-33.9,7.8-68,13.2-103,10.1c-8.4-0.8-17.1-1.4-25.2,2.8
			c-6.2,3.2-12.7,3.5-18.6-1c-14.5,1.3-29.1,2.7-43.6,4c-11.4,5.7-24.3-1.8-35.7,3.9c-15.9,2.2-33.5-5.8-47.6,7.8
			c-1.3,1.4-2.9,2.4-4.8,2.9C112.7,724.9,109.3,721.5,105.8,718.2z"/>
		<path class="st39" d="M273.8,800.7c2.8,4.7,7.5,3.8,11.9,4c17.2,7,33.4,15.6,47.6,27.8c2.7,2.6,5.3,5.3,8,7.9c1,1.1,1.4,2.2,1,3.4
			c-0.4,1.1-0.7,1.6-1.1,1.6c-5.4,2.8-10.4,0.9-15-1.8c-36.9-21.8-76.3-39.1-111.9-63.2c-6.4-5-13.3-9.3-21.2-11.8
			c-10.4-5.4-20.3-11.9-31-16.6c-4.8-2.8-10.1-5.2-12.4-10.9c0.3-3.1,1-5.7,5.1-3.9c6.6,2.7,13.2,5.3,19.8,8
			c11.3,0.9,20.4,7,30.3,11.6c13.5,6.3,24.8,16.3,43.1,12C265.2,764.8,272.3,776.1,273.8,800.7z"/>
		<path class="st2" d="M273.8,800.7c-1.6-1.1-4.2-2-4.5-3.5c-5.7-24-5.6-23.8-33.2-19.7c-2.5,0.4-5.6-2.4-8.3-3.8
			c-17.7-9.5-35.5-19.1-53.2-28.6c10.7-9.9,18.9-9.6,29.3,2.5c8.4,9.7,21.4,16.8,35.5,12.2c14.8-4.8,28.4-2.9,38,7.9
			C286.8,778.2,276.4,789.7,273.8,800.7z"/>
		<path class="st2" d="M250,705.5c48.9-4,97.9-7.9,146.8-11.9c-6.9,7.5-15.1,10.4-25.6,11.2c-14.6,1.2-30.3-2.5-43.8,7.8
			c-3.4,2.6-11,2.4-15.3,0.4c-17.2-7.7-32.7-8.9-49.3,2.9C255.2,721.3,249.4,715.1,250,705.5z"/>
		<path class="st2" d="M333.3,832.4c-18.1-5.5-33.9-14.8-47.6-27.8c19.4-4.3,33.3,8.8,49,15.8C343,824.2,336,828.6,333.3,832.4z"/>
		<path class="st2" d="M404.8,693.5c8.7-0.4,16.9-2.1,23.8-7.9c1.6-1.2,3-0.9,4.1,0.8c1.3,6.3,2.5,12.6,3.8,18.9
			C426.4,700.2,411.7,707.3,404.8,693.5z"/>
		<path class="st40" d="M154.8,737.2c-1.3,0.8-2.6,1.6-4,2.4c-15.1,1.7-25.3-5.4-32.6-17.9c1.6-0.2,3.2-0.3,4.9-0.5
			C136.2,721.5,144.8,730.6,154.8,737.2z"/>
		<path class="st40" d="M170.6,713.4c11.2-7.9,23.9-2.2,35.7-3.9C195.5,720.2,182.3,709.8,170.6,713.4z"/>
		<path class="st41" d="M341.1,844.7c0.1-1.4,0.1-2.9,0.2-4.3c6.6,2.7,13.2,5.3,19.8,8c-1.6,1.5-3.2,2.9-4.8,4.4
			C348.3,855.5,342.7,853.9,341.1,844.7z"/>
		<path class="st12" d="M948.9,700.9c-8,13.9-2.2,21.5,5.7,28.6c4.1,3.7,5.1,8,4.7,14.1c-2,27.4-2.2,54.9-4.4,82.2
			c-1.3,16.5-13.8,29.5-16,46.5c-0.8,6-8.6,0.7-10.4-2.7c-13-24.4-39.5-36.7-52.8-61.3c-6.9-12.7-21.3-20.5-30.7-32.7
			c-16.9-22.1-37.3-41.5-52.5-65.1c-2.8-4.3-6.9-8.3-12.7-8.8c-11-0.8-15.5-6.4-13-17.1c0.8-3.4,1.4-6.7-1.4-9.2
			c-23.4-20.8-1-17,9.8-17.4c17.6-0.7,29.6-6.6,32.8-25.7c1.2-7.1,8.3-13.2,14.6-8.8c19.6,13.6,28.7-4.4,37.5-13.5
			c21.6-22.1,38.2-21.9,51.7,5.9c6,12.3,11.9,23.9,20.3,34.9C943.5,665.9,935.1,688,948.9,700.9z"/>
		<path class="st42" d="M742.1,503.1c44-2.3,84.7,6.9,120.4,34c4,3,9.6,3.8,14.5,5.7c1.3,1.4,2.6,2.8,3.9,4.1
			c1.6,9.4-7.4,10.9-11.8,15.9c-1.4,2.5-2.8,4.9-4.2,7.4c-5.8,5.4-13.8,7.3-19.9,12.2l0.1-0.1c-28.5,21.6-62.1,35.1-91.3,55.6
			l0.1-0.1c-8.2,5.4-16.5,10.6-24.5,16.3c-4.9,3.5-12.3,10-17.1-1.3c0.1-2.1,0.8-4,2-5.8c8.4-7,5.9-16.8,6.5-25.7
			c1.2-16.2,0.5-32.8,9.6-47.4c14-2.2,14,8.4,15.2,17.3c0.9,6.5-3.1,12.6-3.1,21c14.2-3,23.9-12.2,34.2-19.2
			c16.5-11.1,33-21.5,51.6-28.7c15.4-6,15.1-10,2.2-21c-15.6-13.2-33.8-16.7-53.2-17.9c-13.7-0.8-27.7-0.1-40.4-6.9
			C734.2,511.9,737,507.1,742.1,503.1z"/>
		<path class="st43" d="M713,653.4c17.1,3.9,25.2-15.9,40.9-15.6c-1.4,4-4.9,5.8-7.9,8.4c-14.8,12.8-14.4,21.6-2,35.6
			c46.9,52.9,92.7,106.8,140.3,159.1c24,26.3,46.5,53.4,68.3,82.3c-6.1,3.8-8.4-3.5-12.5-2.8c0,0,0.1-0.3,0.1-0.3
			c-6.6-10-16.3-16.7-26-23.2c-6-2.5-11.3-6.1-15.6-11c-8.6-13.9-19.4-25.8-31.7-36.5c-15.8-22.1-35.5-40.9-53.4-61.2
			c-2-2.1-3.3-4.6-3.1-7.6c-10.1-22.7-31.6-35.9-45.9-55.2c-12.4-16.7-26.8-31.8-40.4-47.7c-5.3-4.2-9.2-9.5-12.9-15.1
			c-0.7-0.7-1.6-1-2.6-0.9c-0.5-1-0.7-2.1-0.6-3.2c-0.2-1.6,0.1-3.1,0.7-4.5C710,653,711.4,652.8,713,653.4z"/>
		<path class="st44" d="M753.8,637.8c28.1-22.5,59-40.1,91.3-55.6c0.2,2.4-4.5,6.8,1.9,6.8c5.4,0,9.5-7.3,16.8-3.6
			c-9.1,9.7-18.1,18.9-26.5,28.5c-4.9,5.6-9.1,2.3-11.3-1.2c-8.1-12.7-15.5-5.5-24.2-0.9C785.8,620.4,772.2,633.6,753.8,637.8z"/>
		<path class="st45" d="M869.1,562.8c3.9-5.3,7.8-10.6,11.8-15.9C887.7,560.1,876,559.6,869.1,562.8z"/>
		<path class="st44" d="M845.1,582.3c4.4-7.8,11.9-10.3,19.9-12.2C861.1,578.7,853.5,581.1,845.1,582.3z"/>
		<path class="st46" d="M543.7,197.5c1.6-21,7.4-39.7,23.8-54.8c9.2-8.5,20.6-16,22.2-31.2c0.5-4.4,7.4-9.1,12.3-12
			c13.4-8,27-15.9,41.2-22.5c12.9-6,24.5-12.8,41.6-5.3c13.7,6,32.4,3,41.1-14.4c4.8,1.4,5.1,5.5,3.9,6.5
			c-20.5,18-5.9,42.9-11.7,64.1c-3.1,11.3-0.7,27.8,2.1,41.7c4,20.1,2.7,39.9-4.1,58.9c-3.4,9.7-1.5,19-1.7,28.5
			c7.3,15.8,3.1,33.3,9.8,50.1c7,17.6-12.2,31-30.9,25.5c-12.3-3.6-22.8-10.4-32-18.5c-18.1-16-35.8-31.8-60.9-35.6
			c-5.1-0.8-7.2-5.2-9-9.6v0c-12.1-13.6-30.4-16.7-44.8-26.5c-7.8-5.3-17-9-10.7-21.1v0C536.9,212.9,536.4,203.9,543.7,197.5z"/>
		<path class="st47" d="M480.4,229.3c2.8,7.3,7.9,13.6,7.7,22c-0.1,7.2-0.7,15.9,9.1,16.8c10.2,0.9,10.1-7.9,11.4-15
			c0.4-2.5,2-4.8,3.1-7.2c2.3,1.2,4.7,2.4,7,3.7c7.2,3.4,14.4,6.6,20.7,11.6l0.1,0.1c6.2,4.5,13.9,6.6,19.7,11.8l0.1,0.1
			c17.2,10.4,34.7,20.5,51.5,31.6l0.2,0.1c6.4,5.8,17,5.8,21,14.9c-1.6,3.4-4.6,5.5-7.3,7.9c-21.9,21.3-44.5,42-63,66.6
			c-22.9,21.5-43.2,45.6-67.7,65.5c-19.3,15.7-35.4,34.7-53.4,51.7c-3.8,3.6-7.2,7.6-11.3,10.8c-3.5,2.8-7.4,7-12,4
			c-5.1-3.3-2.3-8.5,0.2-12.1c5.1-7.3,6-15.7,7.5-24c8.4-19,19.4-36.1,38-46.9c1.7-1,4-1.9,4.7-3.5c10.7-24.8,38.6-31.5,53.6-50.5
			c14.2-18.1,28.6-35.9,44.1-52.9c6.3-6.9,16.4-15.8,10-25.6c-6.6-10.1-20.8-14.2-31.9-11.8c-23,5.1-42.7-9.2-64.9-8
			c-8.6,0.5-15.1-9.4-16.9-17.6c-4.4-20.1-20.7-26.9-35.3-36.9c-40.6-27.8-84.6-50.4-124.1-79.9c-17.6-13.1-36.5-23.8-56.1-33.1
			c4.8,15.3,13.2,29.2,22.4,42.4c20.7,29.6,29.7,64.5,44.2,96.9c7.5,16.8,17.3,32.4,26,48.6c14.2,26.5,26.2,54.3,36.3,82.7
			c2.4,6.8,3.6,13.9,8.1,19.8c4.9,6.5,5.5,13.3,0.4,20.1c-8.9,7.8-14.7,1.4-20.5-4.6c-12.9-30.9-34.2-57.6-44.3-89.8
			c-0.2-6.4,0.9-13.4-7.3-16.3c-2.2-1.4-4.1-3.2-5.6-5.3c-3.7-8-7.9-15.7-14.4-22c-29.5-55.8-54.5-113.7-82.1-170.4
			c-4.1-8.4-8.8-16-14.4-23.3c-0.5-1.2-0.7-2.4-0.7-3.7c-3.5-13.1-9.3-25.4-15.2-37.6c-2.6-5.3-9-10.1-4.5-17.4
			c1.4-0.2,2.8-0.5,4.1-0.7c15.6,2.1,27.6,12,40.2,20c31.1,19.8,63,38.1,95,56.3c16.7,11.4,34.6,20.8,51.5,31.8
			c4.4,3.2,9,6.3,13.6,9.2c15.4,12.7,33.9,20.3,50.4,31.3c6.6,4.3,13.9,7.7,18.4,14.7C458.7,213.8,469.6,221.6,480.4,229.3z"/>
		<path class="st48" d="M861.1,42.8c35.1,4.8,69.1,16.7,105,15.8c8.9-0.2,7.9,5.2,5.8,10.3c-3.9,9.5-3.8,19.3-3.9,29.2
			c-1.3,1.4-2.8,2.3-4.6,2.9c-7.8-4.5-9.6-0.9-8.6,6.5c-1.4,2.8-3.7,4.5-6.8,5c-5.4-0.1-9.8-2.1-12.6-7
			c-0.4-22.6-0.4-21.7-22.2-23.1c-21.7-1.4-43.5-5.2-64-12.6c-12.5-4.5-25.3-7.6-37.7-11.9c-15.7-5.4-21.4,1.2-24.6,15.6
			c-2.4,10.8-0.2,21.1,0.1,31.6c1.3,48.2,0.1,96.6-6.4,144.2c-2.7,19.8-2.4,41-11.2,59.9c-5.1,6.9-5.9,18.8-19.1,16.3
			c-5.1-18.4,5.9-35.3,5.3-53.6c-0.3-9.1-2.5-20,4.7-28.4c9.5-12.2,4.3-25,1.6-37.8c-0.1-1.8,0-3.7,0.3-5.5
			c7.8-14.9-4.6-33.1,2.2-44.5c9.2-15.6-0.6-25.7-2.1-38.1c-2.6-18.6,2.8-36.5,5-54.7c1.2-10,3.7-19.7-5.7-27.2
			c-2.2-4.7,1.6-6.6,4.3-9c6.5-0.1,12.9-0.2,19.4-0.3C811.2,28.8,837,31.8,861.1,42.8c-3.5,6.6-8.8,7.4-14.9,4.3
			c-13-6.4-27.7-6.6-37.3-9.5c23.2,1.6,47.2,17.1,72.8,17.7c-3.8-1.6-10.3-0.9-16.3-2.8C859.7,50.8,857.2,48.3,861.1,42.8z"/>
		<path class="st49" d="M591.3,268.9c11.3,12,28.7,8.6,42.6,17.5c16.5,10.5,28.5,26.2,46.1,35.1c5.6,2.9,10.2,7.1,17,7.3
			c5.4,0.1,14.4,7.1,15.3-0.3c1.3-10.1,16.2-17.2,5.4-30.3c-9.9-12.1-0.6-27.6-3.4-41.3c8,11.2,12.2,23.5,8.7,39.5
			c12-6.9,3.5-17.4,9.8-24.8c7.4,14-4.7,28,1.3,40.9c7.1,9.3,7.2,18.5-0.1,27.7c-6.9,5.4-1.9,13.8-6.1,22.9
			c-26.2-23-58-35.3-85.9-55.1c-12.8-9.1-22-28.2-43.3-25.6C591.4,283.4,587.2,277.1,591.3,268.9z"/>
		<path class="st50" d="M771,355.1c-1.8,1.5-3.6,2.9-5.4,4.4c-0.1,0.9-0.2,1.8-0.3,2.8c-7.3,10.8-14.4,22-30,20.9
			c-2.8-0.9-5-2.4-5.2-5.7c1.4-3.2,2.7-6.5,4.1-9.7c5.6-19.4-1.6-39.6,4-59c6.9-28.7,3.6-58.5,8.2-87.4c2.6-1.1,4.6-0.4,6,2
			c7.7,24.2-0.2,48.2-1.1,72.2c-0.4,9.8-1.5,19.6-2.6,29.4c2.2,5.1,2.3,10.4,1.3,15.7c-0.9,5.7-4.1,11.1-1.5,20.3
			c23.9-23.8,46.5-46.8,69.6-69.2c6.7-6.5,11.6-16.5,23.5-15.4c3.4,4.5,2.1,9.2-1.2,12.6C818,311.7,798.1,337.2,771,355.1z"/>
		<path class="st49" d="M535.7,221.3c-1.3,11.9,8.3,15.1,16.1,19.2c11.3,6,22.9,11.6,34.8,16.5c6.5,2.7,7.7,6.1,4.7,11.9
			c-7.2-5.6-17.2,5.3-23.8-4c-3.1-4-8.2-4.9-11.9-7.9c-5-2.9-5.5-10.9-12.4-11.3C518.2,244.3,527.7,232.6,535.7,221.3z"/>
		<path class="st51" d="M730.1,377.5c1.9,1.6,3.7,3.2,5.6,4.9c5.3,3,5.9,6.7,1.9,11.3c-3.5,2-7.2,1.9-10.8,0.4
			c-1.6-0.9-3-2.1-4.3-3.4c-12.2-12.2-28.7-18.1-42.4-28.2c-7.5-6.4-16.8-9.9-24.9-15.4c-5.4-3.7-13.8-5.8-12.4-15.3
			c2.8-1.8,5.4-1.4,7.9,0.6C677.1,347.4,703.6,362.4,730.1,377.5z"/>
		<path class="st17" d="M766,26.7c-1.4,2.7-2.7,5.4-4.1,8c4.5,13.5,2.3,27.5,1.5,41c-1.8,28-2.5,56.2-7,84c-1.5,2.4-3.5,3-6.1,1.9
			c-2.9-40.2,5.9-80,4.1-120.2C754,33.6,756.1,27,766,26.7z"/>
		<path class="st4" d="M610.8,304.9c-18.9-7.7-36.6-17.3-51.5-31.6C579,279.8,596.5,289.8,610.8,304.9z"/>
		<path class="st52" d="M738.2,308.7c-1.2,19.7,3.5,39.8-4,59c-0.1-9.1-0.1-18.3-0.2-27.4c0-9.2,0.1-18.5,0.1-27.7
			C735.5,311.3,736.8,310,738.2,308.7z"/>
		<path class="st17" d="M750,221.3l-1.8,0c0,0-1.8,0-1.8,0c0.8-18.5-3.7-37.3,3.6-55.3c7.7,8,4.6,18.2,5.5,27.6
			C754.9,203.1,757.8,213.3,750,221.3z"/>
		<path class="st53" d="M650.6,332.3c-2.6,0.2-5.2,0.3-7.7,0.5c-0.7,0.4-1.4,0.8-2.1,1.3c-0.8,0-1.6,0-2.4,0
			c-7.4-2.6-7.9,6.8-13.5,7.6c-2-0.4-3.3-1.6-4.3-3.3c-1.9-5.2-0.6-9.8,2.5-14.1c2.8-1.4,5.5-2.9,8.3-4.3c2.8-1.6,5.4-1.8,7.3,1.4
			C641.3,326.4,649.2,325.8,650.6,332.3z"/>
		<path class="st49" d="M543.7,197.5c-0.3,8.7-2.1,16.9-7.9,23.8C531.2,211,527.1,200.8,543.7,197.5z"/>
		<path class="st4" d="M638.6,321.3c-2.4-0.5-4.8-1-7.3-1.4c-6.6-5.3-16-6.6-20.3-14.9C622,307.5,632.8,310.2,638.6,321.3z"/>
		<path class="st50" d="M750.2,193.5c-0.1-9.2-0.2-18.3-0.3-27.5c0.1-1.4,0.2-2.8,0.3-4.3c1.2,0,2.4,0,3.6,0
			C760.3,173.2,765,184.5,750.2,193.5z"/>
		<path class="st4" d="M559.2,273.2c-8.2-1.2-15.3-4.4-19.7-11.8C547.9,262.2,555.4,264.7,559.2,273.2z"/>
		<path class="st4" d="M539.4,261.3c-8.5-0.9-15.2-5.3-20.7-11.6C527.7,249.9,535.2,252.5,539.4,261.3z"/>
		<path class="st4" d="M555.6,257c5.8-0.1,11.6-0.1,11.9,7.9C561.7,265,557.8,262.3,555.6,257z"/>
		<path class="st54" d="M273.8,344.3c-6.8,3.9-13.5,8-20.6,11.5c-3.1,1.5-7.7,3.5-5.4,6.4c15.2,18.7-4.4,28.7-10.6,41
			c-9,17.8-15.4,35.7-14.8,55.5c0.4,12.7-1.7,18.5-16.7,13.4c-43.2-14.8-78.9-35.3-96.2-82.5c-7.5-20.4-21.8-39.7-32.4-59.9
			c-7.1-13.5-2.8-16.2,9.2-17.3c12.3-1.2,24.6-2.5,36.8-3.7c31.2,8.2,62.4,15.2,94.9,7.5c5.6-0.9,11.2-1.2,16.8-1
			c11.8,0.5,23.5,2.5,34.3,6.6C280,326,287.4,333.6,273.8,344.3z"/>
		<path class="st55" d="M273.8,344.3c6-9.4,3.9-16.4-7.1-18.8c-10.7-2.3-21.7-3.4-32.5-5c-0.9-5.9,3.4-6.7,7.6-7.5
			c5.9,0.1,11.6,2.4,17.5,1.7c14.1,6.8,29.7,2.9,44.3,6.1c1.7,1,3.1,2.2,4.4,3.6c12.8,28.3,32.7,53.1,41.2,83.5
			c-0.2,3-1,5.8-3.1,8.2c-16.4-6.9-21.4-22.7-28.7-36.7c-1.2-6.1-2.9-11.9-7.5-16.4c-5.9-4.9-6.3-14.4-14.4-17.4
			c-6,5.7-4.5,13.8-7.2,20.6c-6.1,16.3-10,33.3-14.9,49.9c-4,14.1-8.7,28-12,42.3c-4.6,12.5-7.6,25.5-10.7,38.4
			c-0.5,1.8-1.3,3.6-2.2,5.2c-1.6,2.4-4.7,3.1-6.3,5.5c0,0-0.4,0.1-0.4,0.1c-14.7-9.3-10.6-23-7-35.4
			C247.4,429.4,260.8,386.9,273.8,344.3z"/>
		<path class="st56" d="M242.1,316.5c-3.3,0.1-6.2,0.8-8,4c-5.3,0-10.6,0-15.9,0c-33.8-3.2-68-3.9-99.2-19.8
			c-25.7-4.8-51.3-9.5-77-14.3c11.3-6.5,23,4.3,33.1-5.3c58.7,8.9,117.2,18.6,175.3,31C248.7,315.6,244.1,313.6,242.1,316.5z"/>
		<path class="st5" d="M119,300.7c33.1,6.3,67,9,99.2,19.8c-33.1,6.6-65.5,8.4-95.2-11.9C121.7,306,120.4,303.3,119,300.7z"/>
		<path class="st57" d="M810.3,780.6c1.2,1.2,2.4,2.5,3.5,3.7c1.1,6.5,13,9.7,6.2,18.5c-6.1,7.7-14.2,8-23.2,5.1
			c-9.5-3.1-18.8-5.7-23.9-15.6c-2.9-5.6-7.4-10.2-14.1-5.2c-5.7,4.2-3.5,9.4,0.1,13.7c6.6,8,9.1,17.5,10.3,27.3
			c1.7,13.5,10.5,16.9,18.6,8.6c18.2-18.4,40-6.2,59.7-9.1c10.1-1.5,14.2,14,22.4,20.4c13.5,9.1,24.6,20.3,31.3,35.5
			c4.3,11.6,18,14.7,23.3,25.4c0.3,0.9,0.5,1.7,0.7,2.6c-15.9,12.4-37.4,5.2-48.8-16c-2.8-5.2-5.8-10.3-9.1-15.1
			c-8.3-12.1-17.4-12.5-27-1.3c-9.6,11.2-27,16.1-26.3,35.8c0.3,9.1-0.6,17.5,8.2,22.4c8.4,4.7,15.8,1.7,23.9-3.2
			c5.5-3.4,7.8-14.4,14.4-10.9c8.3,4.3,19.5,8.7,22.5,18.2c6.5,19.8,20.3,14.9,33.6,11.9c7-1.6,13.5-5.1,20.2-7.7
			c3.9-1.5,8.8-2.6,10.2,2c1.5,4.8,1.4,10.5,0.2,15.4c-1.2,4.7-5.9,3.9-9.9,2.8c-33.9-10-67.5-4.1-101,2
			c-35.4,6.5-70.3,5.3-105.4-3.2c-18.4-4.4-37.4-6.2-56.2-9.1c-0.8-15,1.5-28.4,15.5-37.5c6.6-4.3,9.1-10.9,0.5-15
			c-10.1-4.8-8.7-11.9-8.4-20.7c1.1-28.8,11.7-56.6,8.1-85.8c0.6-8.1-2.2-16.8,3.9-24.1c0.2,3.3,0.1,6.6,0.5,9.9
			c0.7,4.8,2.4,9.5,8.4,8.8c5.6-0.7,7.1-5.6,7-10.4c-0.2-10.6,0.3-21.1,4.5-31c2.9-6.9,7.5-13.5,14.8-14.7c8.1-1.3,7.5,7.4,10,12.3
			c4.7,9,14,15.6,22.2,12.6c20.2-7.3,30.5,4.7,41.8,16.8C805.3,778.4,808,779.3,810.3,780.6z"/>
		<path class="st3" d="M915.5,892.7c11.5,6.2,21.8,13.3,24.6,27.3c-5-2.8-9.9-5.7-14.9-8.5c0,0-0.2,0.1-0.2,0.1
			C922,905.2,912.3,902.2,915.5,892.7z"/>
		<path class="st58" d="M174.1,686.2c-5.8-31.6-25.2-57.1-38.9-85.2c-4.8-9.9-12.5-18.5-12.3-30.5c6.7-0.5,10,2,13,8.7
			c10.8,23.7,22.8,46.9,34.6,70.2c2,3.9,2.8,10.3,8,10c6.2-0.5,6.9-7.1,7.7-12.1c5.5-33.6,20-64.8,26.4-98
			c2.8-14.4,14.4-16.7,24-22.3c2.1,1.1,3.1,2.8,2.9,5.1c-14.6,50.3-28.9,100.6-44.2,150.7c-2.4,8-4,17.3-15.8,16.5
			C173.8,696.5,171,692.6,174.1,686.2z"/>
		<path class="st59" d="M237.7,530.7c-0.3-1.3-0.7-2.6-1-3.9c0.8-1,1.4-2.1,1.5-3.4c3.8-0.3,7.5-0.5,11.3-0.8
			c4.8-2.8,9.9-1.4,14.9-1.4c5.8,8.1-0.8,9.8-6.3,12.1c-5.3,0-10.7-0.2-16,0C240.3,532.9,238.9,532.1,237.7,530.7z"/>
		<path class="st60" d="M103.5,955.4c0-2.7-0.1-5.4-0.1-8c3.4-8.9-1.4-21.9,15.5-23.9c8.2-1,6.4-15.3-4.4-18c-9.3-2.3-10-5.8-8.8-13
			c2.6-5,7.7-7.5,11.4-11.5c8.2-6.8,13-14,4.9-24.4c-3.7-4.8-3.6-10.8-1.3-16.5c14.3-22.9,14.2-23.4-4.7-46.7
			c-1.5-7.9-4.7-15-10.2-21c-1.3-10.2-2.8-20.5,13.4-16.7c8.1,1.9,14-6.3,22-5.2c8.1,0,9.8,11.3,18.4,10.5c1.5,3.2,1,6-1.2,8.9
			c-3,4-12,6.9-4.5,13.5c5.3,4.7,10.9,0.6,15.5-3.2c3.5-2.8,5.7-7,9.8-9.1c17-0.8,27.1,11.9,39.4,20.1c0.5,1.2,0.7,2.5,0.5,3.7
			c-1.4,7.2-15.8,12.8-4.9,21.1c8.9,6.8,14.5-4.7,21.5-8.2c1.1-0.6,2.3-1.1,3.6-1.5c7.4-0.5,13.4,1.2,15.7,9.3
			c-3.3,7.1-11.2,14-0.7,21.7c8.5,6.2,16.5,6.6,24.3-1.1c2.3-2.3,4.8-4.4,8-5.3c19.8,2.8,34.5,16.2,49.5,27.1
			c15.2,10.9,30.4,20.3,47.6,27.3c11.9,4.8,24.6,10.3,25,26.6c-11.4,6-21.8,20.8-35.7,4c-24.6-10.2-31.7-2.4-35.7,23.8
			c2.4,5.3,6.7,11.3,2.2,16.4c-5.2,5.9-8.8-2.5-13.3-3.7c-9.1-2.3-16.6,1-24.3,5c-14.1,7.4-28.4,13.5-44.5,5.6
			c-9.2-4.5-17.6,5.9-26.4,2.4c-7.7-3-16.5-5.1-20.6-13.8c2.3-7.4,8.8-11.1,14.2-15.8c2.5-2.2,5-4.9,3.7-8.4c-1.6-4.3-5.7-5-9.7-4.8
			c-13.3,0.9-21.9,7.2-24,21c2.3,5.3,9.9,9.7,1.6,16.5c-8.8,7.2-18.1,16-29.4,8.7c-15.4-9.8-37.1-1.1-49.8-18.6
			C114.8,947.3,110.4,959.1,103.5,955.4z"/>
		<path class="st61" d="M218.3,792.8c-15.3-2.5-24-18.2-39.7-19.9c-9.2,0.3-14.3-6.2-19.8-11.9c-8.7,4.2-11-4.4-15.9-7.9
			c-1.3-6-1.2-11.6,7.2-8.8c4.3,1.4,8.9,2.2,12.9,4.7c11.8,2.7,21.4,9.9,31.5,16.1c6.3,4.7,13.6,7.5,20.3,11.4
			c36.2,20,72.5,40,108.7,59.9c5.7,3.1,11.8,5.5,17.7,8.3c4,4.6,9.2,7.1,15.1,8c20.2,12.8,40.4,25.5,60.6,38.3
			c0.9,7.8,10,7.8,13,13.6c-14.2,13.6-14.2,13.6-21.1,7.2c-9-16.4-25.4-20.9-41.1-27.9c-29.7-13.1-52.2-38.1-81.9-51.5
			c-11.4-3.6-22.2-8.6-31.7-15.9c-4-5.2-9.6-7.3-15.9-7.9C229.6,805.7,222.8,800.7,218.3,792.8z"/>
		<path class="st62" d="M194.4,943.5c-5.1-8.6-5.4-16,5.4-20.4c11.3-4.6,22.6-11.4,34.2-0.7c5.6,5.2,2.3,9.6-1.9,13
			c-7,5.7-14.5,10.8-21.8,16.1C206.3,946.3,200.7,944.2,194.4,943.5z"/>
		<path class="st62" d="M337.3,939.6c-9.9-15.6,0.8-24.9,11.5-32.4c10.5-7.4,18,0.5,24.3,8.6C370.5,937.7,354.4,939.4,337.3,939.6z"
			/>
		<path class="st63" d="M47.6,161.8c-1.8-15.5,6.1-29.3,8.9-43.9c4.2-21.8,6.8-43.7,10.6-65.5c1.6-9.4,4.5-11.1,14-10.3
			c24.5,2.1,49.1,9.8,73.7,0.7c3.4,19.3,16.6,34.6,22.6,52.7c9.1,27.3,25,51.2,37.4,76.8c10.8,22.2,19.4,45.6,33.9,66.1
			c11.4,16.2,16,35.5,21.1,54.4c-2.7,7.7-9.3,9.8-15.7,8.1c-18.7-5.1-37.3-10.3-56.8-11.8c-6.1-0.5-12.8-3.1-15.8-10.1
			c0-3.3,1.8-5.5,4.3-7.2c15.5-5.6,29.7,2.7,44.6,4.3c4.9,0.5,11.1,4.2,14.6-1.6c3.5-5.8,4.4-14-0.6-18.7
			c-29.4-27.7-40.4-66.8-61.8-99.5c-14.3-21.8-23.2-47.8-37.1-70.7c-7.3-12-44.8-18.2-54.9-9.1c-5.6,5.1-4.2,11.7-4.3,18.3
			c-0.6,28.5-13.7,50.7-36,67.9C49.4,162.4,48.5,162.1,47.6,161.8z"/>
		<path class="st64" d="M186.5,272.9c-1.3,1.3-2.6,2.6-4,4c-9.4,7.7-19.6,10.3-31,4.5c-6.7-3.4-13.9-3.3-21.1-3.9
			c-15.2-1.2-31.3,4.7-44.9-8c-3.4-3.2-10.2-1.5-14.1,3.3c-11.9-1.3-23.8-2.6-35.6-3.9c0.3-28.6-1.9-57.3,3.9-85.7
			c1.6-7.6,2.4-15.4,8-21.5h0c7.3,5.8,12.5,13.6,18.1,20.8c8.9,11.5,13.3,24.4,3.2,38.1c-2.8,3.7-4.7,8-5.3,12.7
			c-1.5,10.8,0.5,16.3,14.3,16.8C115.2,251.5,152.1,257,186.5,272.9z"/>
		<path class="st65" d="M71.4,272.9c0-13.6,14.9-10.9,16.4-8.7c9.7,15.1,23.3,10.1,36.4,9.6c12.2-0.5,24.1-1.8,35.6,6.1
			c6.7,4.7,15-2.2,22.8-3c23,13.7,51.3,8.6,74.9,21c2.5,1.3,8.2-3.3,12.4-5.1c6.1,5.5,12.2,11,21.2,19.1
			C215.3,295.6,143.1,285.3,71.4,272.9z"/>
		<path class="st66" d="M195,102.3c8,0.8,10.8,7.9,13.3,13.3c28.8,60.2,57,120.8,85.3,181.2c4.7,3.2,8.5,6.9,6.3,13.4
			c-0.9,1.8-2.3,2.6-4.2,2.6c-27.7-58-55.4-116-83.1-174C206.8,126.6,200.9,114.4,195,102.3z"/>
		<path class="st66" d="M174.6,43.5c3.8,19.3,21.7,33.6,19.7,55c-9.4-19.8-18.8-39.6-28.2-59.4C169,40.6,171.8,42.1,174.6,43.5z"/>
		<path class="st56" d="M295.7,312.8l1.5-0.2c5.8,2.2,8.1,5.8,4.8,11.7c-13.5-1.7-27.8,0.3-40.1-7.7c-1.4-0.7-1.8-1.5-1.4-2.2
			c0.4-0.7,0.9-1.1,1.4-1.1C273.1,312.3,284.6,321.9,295.7,312.8z"/>
		<path class="st67" d="M261.9,313.2c0,1.1,0,2.2,0,3.3c-6.6,0-13.2,0-19.8,0c1.8-3.5,5.1-3.8,8.4-4.4
			C254.3,312.5,258.1,312.9,261.9,313.2z"/>
		<path class="st28" d="M771,355.1c19.4-20.4,38.8-40.8,58-61.3c4.9-5.2,11.2-9.3,13.4-16.6c-0.2-3.5,1.3-6.5,3.6-8.9
			c39.2-40.8,80.3-79.8,119-121c2.4-0.2,4.9-0.4,7.3-0.6c-7.1,15.9,2.3,30.6,4.4,45.6c4.8,33.8-5.2,65.7-9.5,98.2
			c-1,7.1,1.9,15.4-3,22.1c-4.9,5.9,0.7,13.9-4,19.9c-4.2,30.1-20.2,54.8-36.1,79.6C873.1,393,822.1,374.1,771,355.1z"/>
		<path class="st68" d="M765.6,359.5c49.7,18.8,99.3,37.7,151.1,57.3c-17,13.2-29.1,28.2-47.7,34.7c-14.9-1.5-28.4,2.3-40.8,10.7
			c-11.5,7.8-24.3,10.6-37.5,5.7c-16.1-5.9-34.4,1.4-49.7-8.5c-3.6-23.9,3.6-47.2,4.6-70.9c0.5-12.9,15.4-17.6,19.9-28.7
			L765.6,359.5z"/>
		<path class="st69" d="M765.5,359.8c-23.8,29.4-13.2,67-23.5,99.6c7.1,10.5,6.8,19.9-4,27.8c0.5,5.5-1.9,11.7,4,15.9
			c-1.3,5.3-2.6,10.6-4,15.9c1.4,1.4,2.3,3.1,2.8,5c1.1,14.4-1.7,28.7-2.5,43c-0.6,3-2,5.5-4.3,7.6c-7.5,18.2-8.3,37.4-7.9,56.7
			c0.2,8.8,0.3,17.5-11.7,18.7c-4.8-4-5-9.6-5.3-15.1c-0.1-5.4,0.2-10.8,1.4-16.1c2.9-8.1,2.4-16.5,2.4-24.9
			c-0.1-5.5,0.4-10.9,1.6-16.2c4.1-13.1,0.8-26.8,3.6-40c5.4-41.8,8.9-83.8,13.8-125.6c0.8-7.2,1-14.5,5.8-20.5
			c-0.7-3-1.5-6.1-2.2-9.1C749.1,379.4,753.3,364.3,765.5,359.8z"/>
		<path class="st45" d="M738.1,487.2c5.5-8.7,3.7-18.4,4-27.8c19.1,0.1,38.3-1.5,56.8,5c13.4,4.7,22.6-4,32.3-10.1
			c12.3-7.7,24.5-12.1,37.9-2.8c-25.5,22-58,21.8-88.6,27.7C766.4,481.9,752.2,484.5,738.1,487.2z"/>
		<path class="st70" d="M769.8,487.2c-2.9,6.8-14.2,0.6-15.5,9.9c-6.3,0-9.9-2.5-3.5-7.2C756.1,486,763.2,486.4,769.8,487.2z"/>
		<path class="st71" d="M364.2,154.3c-17.9-8.9-35.3-18.6-51.1-30.8C276.8,97.7,236.8,78,200.1,53c-5.2-3.6-15.1-3.8-13.6-14.2
			c14.7-0.1,29.5,1.4,43.6-4c1,18,13.4,24.9,28.4,29.4c3.6,0.7,6.9,2.2,10,4.1c22.5,16.5,44.3,34.2,69.1,47.4
			c7.6,4.8,13.5,11.8,21.3,16.4c8.8,5.3,16.7,6.2,24-2.2c3.1-2.6,6.7-3.9,10.6-4.8c15.8-1.3,30-13.6,47-7l0,0
			c5.1,6.1-1.8,8.2-4,11.9c-8,4-15.9,7.9-23.9,11.9c-4.9,7.7-13.6,8.6-21,12C382.5,157,373.4,159.5,364.2,154.3z"/>
		<path class="st72" d="M440.5,118.1c-15.9,4-31.7,7.9-47.6,11.9c-2.1-2.1-3.1-4.7-3.3-7.6c1.7-9.4-1.9-15.2-10.1-20.9
			c-16-11.2-31.7-22.7-49.3-31.2c-6.3-3.1-13.1-6.4-14.7-14.5c0.1-1.9,0.7-3.6,2-5.1C368.7,54.5,412.5,71.8,440.5,118.1z"/>
		<path class="st73" d="M317.5,50.7c0,1.3,0,2.6,0,4c-13.9,11.1-30.3,5.7-42.7,1.1c-15.2-5.7-14.6,2.2-16.8,10.9
			c-20.7,0.5-35.5-16.3-27.8-31.7C260.3,34.6,289,41.7,317.5,50.7z"/>
		<path class="st73" d="M186.5,38.8c31,24.5,65.7,43,99.3,63.5c9.9,6,21.9,9.3,27.3,21.1c-46.4-24.2-90.7-51.9-134.3-80.6
			C181.3,41.5,183.9,40.1,186.5,38.8z"/>
		<path class="st72" d="M436.5,130c-2.7-5.3,6.1-6.8,4-11.9c3.3,1.7,3.9,4.8,4,8.1C442.7,129.3,439.8,130,436.5,130z"/>
		<path class="st74" d="M392.7,149.7c5.7-5.1,12.9-6.1,19.9-7.8c2.6,0,5.2,0.3,7.8-0.1c10.5-1.7,23.3-6.5,30.3,2.5
			c9.9,13,19.6,27.6,20,45.2c0.1,2.7-4.2,0.5-6.4,0c-10.5,1.8-10.7-7.2-13.5-13.2c-6.8-14.6-16.7-21-33.2-13.4
			c0.9,14.4,20.7,9.9,22.9,22.7c2.6,6.8,8.2,12.5,7.4,20.5c-24.6-13.3-50.5-24.6-71.5-43.8C378.2,153.5,389.4,156.6,392.7,149.7z"/>
		<path class="st75" d="M440.5,185.6c-11.8-7-27-9-33.3-23.5c35.6-16.5,37.8-7.8,49.5,19.1c1.7,3.8,3.9,6.7,7.6,8.4
			C452.9,208.7,449.1,182.7,440.5,185.6z"/>
		<path class="st76" d="M960.3,332.4c1-6.7-2.6-14.3,4-19.9C963.3,319.3,966.9,326.9,960.3,332.4z"/>
		<path class="st48" d="M83.4,951.3c-7.9,0-15.9,0.6-23.8-0.2c-12-1.2-20.4-6.1-16.2-20.6c10-35.6,2-70.6-4.5-105.4
			c-6.3-33.8-2.7-66.7,5-99.6c1.4-1.4,3-1.8,4.9-1.5c4.4,1.9,8.4,4.1,8,9.9c-3.2,8.1-9.1,15.3-8.2,24.7c0.1,10.9-1.4,21.7-1.1,32.6
			c-0.2,1.9-1.8,4.8-1.3,5.4c1.8,2.3,1.7-0.7,2-1.4c5.7-11.2,11.7-10.7,18.2-0.7c1.5,4.7,1.4,9.2-0.9,13.6
			c-23,10.7-10.6,29.6-10.4,45.6c-2.7,11.4,9.6,19.8,6.5,31.3c5-9-5.8-15.2-4.2-23.6c1-3,3-5,5.8-6.3c4.5-0.8,7.8,1.4,10.7,4.5
			c6.3,9.4,13.9,18.1,17.7,29.1c2.1,14.5,1.1,29,0.9,43.6C92.3,940,89.5,946.4,83.4,951.3z"/>
		<path class="st77" d="M99.2,713.4c-0.1,80.3,1.4,160.7-3.2,240.9c-0.7-1-1.2-2.1-1.7-3.3c-3.3-2.5-5.4-5.5-5.1-9.9
			c3.5-42.9-9.5-85.9,0.3-128.8c2-32.3-4.6-64.8,3.2-96.9C94.4,712.9,96.5,712.3,99.2,713.4z"/>
		<path class="st78" d="M94.7,812.6c-5.7,38.3-2.7,76.9-3.5,115.4c-0.2,7.9-0.2,15.7,3.1,23.1c-3.7,0-7.3,0.1-11,0.2
			c7.2-22.1,2.7-44.8,3.9-67.2c-6.9-11.6-5.4-24.3-5.5-36.9c-0.1-2.2,0-4.5,0-6.7c0.6-9.9-1.3-20.1,2.9-29.7
			C89.3,805.1,92.1,808.3,94.7,812.6z"/>
		<path class="st79" d="M47.6,725.2c-1.3,0-2.5,0.1-3.7,0.2c-0.2-1.6-0.3-3.2-0.5-4.8c0.1-1.1,0.3-2.2,0.5-3.3
			c10.7-3.1,21.3-11,32.3-0.8c0.7,2.2,0.4,4.1-1,5.9C66.5,728.7,56.9,725.1,47.6,725.2z"/>
		<path class="st80" d="M965,147.2c0.5,4.5-2.2,7.4-5,10.2c-38.6,40.4-76.8,81.4-117.6,119.7C816.8,294.9,798,320,775.4,341
			c-10.1,9.3-19.3,19.6-32.2,32.9c-0.5-13.2-4.3-21.6,2.8-29.5c5-5.3,12-7.8,17.6-12.2c18.3-15.3,33.5-33.7,50.6-50.1
			c31-29.6,58.1-62.9,89.9-91.6c1.3-1.3,2.6-2.5,3.9-3.7c13.7-12.5,25.7-26.5,36.9-41.2c0.7-4.9-0.6-9.9,0.8-14.7
			c2.2-5.3,3.3-10.7,1-16.2c-0.2-1.8,0.3-3.2,1.7-4.4c1.3-1.3,2.6-2.6,4-4c4.4-1.9,7.2,0.6,9.7,3.6c3.6,10.5,1.2,21.3,2.1,32
			C964.5,143.7,964.8,145.4,965,147.2z"/>
		<path class="st48" d="M964.2,141.9c-9.5-9.5-2.1-21.2-3.9-31.7c-0.2-4.2,1.4-5.5,5.2-3.2c2.3,8.9-1.7,18.4,2.5,27.1
			C968.1,137.3,967.5,140.2,964.2,141.9z"/>
		<path class="st81" d="M968,134.1c-7.2-8.5-2.3-18.6-3.8-27.8c-2.5-2.6-2.3-5.3,0-7.9c1.2,0,2.5-0.1,3.7-0.2
			C968,110.1,968,122.1,968,134.1z"/>
		<path class="st82" d="M75.2,716.8c-10.5,0.2-20.9,0.4-31.4,0.6c10.8-10.6,9.3-25,11.7-38.2c7.2-38.7,22.8-72.6,55.5-96.7
			c5.5,2.5,8.7,7.3,11.9,12c1.2,2.7,2.5,5.4,3.7,8.1c8.6,12.1,13.6,26.1,20.3,39.2l0.1,0.1c8.7,14.1,13.8,30.3,23.5,43.9
			c1.2,0.1,2.3,0.3,3.5,0.5c-0.2,5,2.7,8.6,5.4,12.4c0.8,0.7,1.1,1.5,0.8,2.2c-0.3,0.7-0.6,1-0.9,1c-17.9,6.4-36.7,5.2-55.1,7.4
			c-6.9,0.8-14.3-0.9-20.7,3.4c-1.5,0.3-3,0.6-4.5,0.9c-1.3,0.5-2.7,1-4,1.4C88.9,718.9,82.1,718.6,75.2,716.8z"/>
		<path class="st83" d="M123.1,594.5c-5.3-2.7-9.4-6.6-11.9-12c1.1-1.2,2.2-2.5,3.4-3.7C121.3,581.8,122.9,587.8,123.1,594.5z"/>
		<path class="st84" d="M162.9,749c-6.3,3.4-15.9-9.7-20.1,4.1c-10.5-0.7-16.1,17.7-30.9,6.4c-4.8-3.6-3.3,8.5-4.8,13.4
			c9.9,17.7,5.5,36.7,3.8,55c-0.8,9-2.6,17.8-0.8,26.7c2.8-2.7-2.5-3.9-1-6.3c1.3-5.9-3.2-13.3,4.6-17.4c6.5-0.2,8.9,3.7,9.3,9.5
			c0.6,4.5-0.4,10.8,2.2,13.2c15.2,14.1,6.7,22.5-6.1,30.4c-5.6,0.1-9.5,3-11.9,7.9c1,3.1-2.2,9.8,3.8,8.8
			c13.9-2.4,18.6,9.8,20.5,16.8c1.8,6.4-7.2,14.2-17.5,13.4c-13.6-1.1-1.9,14.2-10.6,16.4c0-63,0.1-125.9-0.2-188.8
			c-0.1-13.6,7-26.6,2.6-40.4c4.1,1.2,8.3,2.4,12.4,3.6c10.9,6,21.8,11.9,32.6,17.9C154.9,742.7,158.9,745.9,162.9,749z"/>
		<path class="st83" d="M170.7,685.7c-13.3-11.7-18.4-27.8-23.5-43.9C159,654.3,164.4,670.2,170.7,685.7z"/>
		<path class="st83" d="M147.1,641.7c-9.9-11.4-15.6-25-20.3-39.2C138.3,613.1,144,626.8,147.1,641.7z"/>
		<path class="st85" d="M265.9,523c-5.5-0.1-10.9-0.2-16.4-0.3c4.8-5.5,14.9-1.2,18.6-9.7c-7.3-9.2-17.5-3.1-25.8-5.5
			c1-1.5,2-3.1,2.9-4.6c6.8-5.1,14.4-5.9,22.4-4c6.8,1.7,12.5,5.4,12.5,13C280.2,521,274.7,524.6,265.9,523z"/>
		<path class="st86" d="M711.1,662.6c7.4,2.4,9.8,9,12.9,15.1C716.7,675.2,711.5,670.9,711.1,662.6z"/>
		<path class="st87" d="M737.9,391.4c-1.8,49.5-7.3,98.6-14.9,147.5c-7.1,13,0.8,27.6-4.4,40.8c-0.2,4.9-0.4,9.7-0.6,14.6
			c-6.4,7.5,1.6,17-3.3,24.8c-0.2,4.9-0.5,9.9-0.7,14.8c-6.5,5.7,2,14.1-3.6,20c-0.8,1.5-1.7,3.1-2.5,4.6c-1.9-1-3.8-2-5.6-3
			c-5.8-0.7-9.3-3.7-10.3-9.6c-0.1-2,0.3-4,1.1-5.9c7-22.5,8-45.8,10.1-69c4.2-45.8,7.8-91.7,13.6-140.5
			c-14.7,8.7-25.2,18.1-35.7,27.4c-22.7,20.2-46.1,39.5-69.3,59.1c-8.5,7.2-20.4,17.5-30.5,0.1c1-6.3,6.6-9.1,10-13.6
			c23.1-25.2,53.3-42,77.5-65.8c12.6-7.1,20.8-19.3,32.1-27.9c9.7-4.2,14.6-15.4,25.6-17.7C730.3,392,734.1,391.7,737.9,391.4z"/>
		<path class="st88" d="M631.1,662.2c-16.8,7.4-35,3.9-52.5,5.8c-33.3,3.6-66.8,8.5-100.6,5.5c-2.2,0-3.5-1-4.2-3.1
			c-0.3-1.9-0.2-3.9,0.3-5.8c11.9-18.7,24.7-36.8,36.9-55.3c2.9-4.3,6.2-8.6,12.5-8c8.1,8.9-3.7,20.1,3.6,29.1
			c1.2,21.6,4.9,27.2,35.6,23.8c20-2.3,39.8,1.4,59.5-2.4c4.1,0,7.4,1.6,9.8,5.1C632.8,658.9,632.4,660.6,631.1,662.2z"/>
		<path class="st89" d="M474.9,669.6c1.1,1.3,2.1,2.6,3.2,3.8c-13.6,9.8-32.9-0.6-45.4,12.9c-1.4-0.2-2.7-0.5-4.1-0.8
			c-1.3-1.3-2.6-2.6-3.9-3.9c-1.8-5-3.2-9.9,1.6-14.1c3.9-1.4,7.7-1.6,10-0.2c-18.4-30-35-62.5-41.7-98.9
			c-2.1-11.3-16.3-19-9.1-32.7c3.5-5.5,6.1-12.9,15-7.5c1.4,1.2,2.4,2.7,3.2,4.4c1.3,11.6,6.4,21.3,14.5,29.7c1,2.6,1.1,5.2-0.4,7.6
			c-6.3,3.6-5.1,8.9-3.1,18.6c-0.4-8.9-2.6-14,2-18c11.9,6.8,27.9,34.4,21.7,38.7c-15.5,10.7-2.1,18.2,0.5,26.5
			c1.8,5.9,4.5,12.5,14.1,7c5.9-3.3,8.3,4.4,11.2,8.3C468.5,656.7,471.9,663.1,474.9,669.6z"/>
		<path class="st90" d="M693.9,647c2.8,2.8,5.6,5.7,8.4,8.5c-5.9,5.3-12.9,2.2-19.5,2.5c-8.7,0.4-17.4,2.2-26.2,1.6
			c-5.5-2.9-0.4-10.4-5.9-13.3c-15.1-19.7-36.4-33.5-50.5-54.2c-7-10.3-15.5-19.7-9.9-33.5c6.7-2.8,9.4,2.4,12.5,6.4
			c19.5,25.8,43.5,47.5,65.1,71.2c-6-12.1-24.7-15.9-21.9-34C670,608.7,682.2,627.6,693.9,647z"/>
		<path class="st91" d="M654.8,657.7c9.3,2.6,18.8-6.6,28,0.3c-16.7,7.3-34.5,2.3-51.7,4.2c-0.1-1.5-0.1-2.9-0.2-4.4
			c1.3-1.5,2.8-2.6,4.7-3.3c3.8-1.1,7.7-1.3,11.6-0.8C650.2,654.2,652.7,655.5,654.8,657.7z"/>
		<path class="st1" d="M678.7,856.2c-0.4,6.4-0.9,12.9-1.3,19.3C673.3,868.8,672.6,862.2,678.7,856.2z"/>
		<path class="st1" d="M682.6,828.4c-0.5,6.4-1,12.8-1.5,19.2C677.4,840.9,676.5,834.4,682.6,828.4z"/>
		<path class="st92" d="M424.6,669.7c2.5,4,2.4,8,0.1,12c0,0,0,0,0,0c-8.8,5-19.1-1.4-27.8,3.9c-68.6,7.7-137.3,13.8-206.4,15.9
			c-1.2-13.2,3-25.1,9.2-36.5c7.2,1,6.4,6.9,6.2,11.5c-0.4,8.4,4.1,9.3,10.6,8.3c13.5-1.3,27.7,2.3,40.4-5.3c2-0.7,4-1,6.1-1
			c19.7,4.1,38.8-2,58.1-4c3.2-0.5,6.3-0.5,9.5,0c26.2-1.9,52.9,0.9,78.3-8.1C414.6,665.3,420.1,665.1,424.6,669.7z"/>
		<path class="st93" d="M202.4,665.8c-8.4,10.4-7.7,23.9-11.9,35.7c-3.6,2.3-7.3,3.1-11,0.3c-0.5-1.1-0.5-2.2,0.1-3.2
			c8.8-2.3,9.1-10,11.1-16.9c13.4-46.4,26.8-92.8,40.4-139.2c1.2-4.2,4.4-7.9,6.6-11.8c1.5,0,2.9,0.1,4.4,0.1c2.3,2.4,3,5.3,2.8,8.5
			c-0.5,22.2-12.5,40.7-19,61.1c-3,17.1-4.5,34.5-10.1,51.2C213.4,658.5,211.6,665.5,202.4,665.8z"/>
		<path class="st89" d="M396.8,685.6c8.4-7.5,18.6-2.4,27.8-3.9C416.2,689,406.1,684.3,396.8,685.6z"/>
		<path class="st94" d="M214.7,776.5c-8.6-0.6-15.8-3.7-20.3-11.4C202.6,766.2,209.7,769.5,214.7,776.5z"/>
		<path class="st95" d="M734.1,574.5c0-2.6,0-5.3,0-7.9c14.3-13.4,8.6-28.6,4-43.7c0-1.3,0-2.6,0-4c35.5,1.6,71.5-1.4,102.1,24.4
			c12.7,10.7,9.2,18-1.1,21.5C806.2,576,780,598,751,615.5c-4.3,2.6-9.5,7.7-14.2,4.1c-5.5-4.1-0.3-9.8,1.3-14.4
			C741.8,594.1,744.9,583.5,734.1,574.5z"/>
		<path class="st96" d="M710.4,653.9c0.1-6.6-0.4-13.1-3.3-19.2c-0.7-1.5-2.3-5.6,2.4-4.6c1.7,0.4,2.9,2.5,4.4,3.8
			c0.2,5.3,0.3,10.7,0.5,16c-0.7,1-1.2,2.2-1.5,3.4C712.1,653.5,711.3,653.7,710.4,653.9z"/>
		<path class="st97" d="M869.8,848c-5.6-1.2-8.5-5.9-12.4-9.3c-5.5-4.8-12.6-4.2-18.3-5.7c-23-5.7-40.2,2.5-59,12.1
			c-7,3.6-16.4,2.2-15.5-12c0.7-11.4-1.8-23.5-12-31.8c-10.7-8.7-3-14.7,3.5-20.4c8.5-7.5,16.5-2.9,19.1,4.8
			c3.8,11.3,10.9,14.4,21.2,17c7.2,1.9,12.9,5.1,19.5-1.2c7.4-7.1-5.9-11-2.1-17.2C835.8,802.5,853.8,824.4,869.8,848z"/>
		<path class="st6" d="M915.5,892.7c1.7,7,10,10.7,9.4,18.8c-10.1-7.5-21.7-13.8-23.8-28.1C906.5,885.6,908.8,892.6,915.5,892.7z"/>
		<path class="st98" d="M381,431.6c1.1-3.6,4.3-6.7,2-11.1c-17-32-29.3-65.9-42.7-99.4c-4.6-11.5-13.8-21-19.9-32.6
			c-13.1-25-23.4-50.6-31.7-77.6c-4.3-14-15.3-25.8-22.7-38.9c-10.6-18.8-20.7-37.8-32.7-59.9c27.9,12.9,52.2,25.6,74.5,42.1
			c26.9,20,56.2,36.1,85.2,52.9c15.8,9.2,29.6,23.1,46.4,31.6c12.1,6.1,22.2,11.9,24.7,28.1c2.4,15.7,13.9,24.5,31.9,22.2
			c11-1.4,22.6-2.1,31,8.3c1,1.2,4.6,2.2,5.2,1.6c18-18.3,31.4,2.3,46.5,5.8c7.9,1.8,8.3,7.1,4.1,15.2
			c-8.5,16.3-21.2,28.4-33.8,40.9c-7.6,7.5-12.4,16.4-17.8,25.5c-7.4,12.6-20.9,21.6-34.1,28c-9.1,4.5-15.5,8.8-18.1,18.8
			c-1.1,4.2-3.7,10.3-7,11.4c-22.9,7.9-31.5,28.7-43.3,46.6c-8.7,10.2-17,4.5-19.8-3.6c-3.3-9.6-2-22.1,9.7-26.3
			c12.4-4.4,22.3-11.4,29.7-21.5c6.3-8.7,6.6-15.8-7.7-16.4c-13.6-0.6-26.4-0.1-35.5,12.1C394.5,449.4,387,445,381,431.6z"/>
		<path class="st99" d="M381,431.6c8.2,7.1,14.1,11.6,22.6-2c11-17.7,31.4-10.2,48-11.2c4.4-0.3,9.4,6.2,6.6,13.8
			c-6,16.6-19.1,29.1-33.7,32.8c-14.4,3.6-6.8,15.6-14,20c4.4,7,10.1,9.9,18.1,6.2c2.6,12.6-3.6,22.3-10.4,32.3
			c27.8-19.7,47.1-48.3,74.8-67.6c4,9.7-3.7,14.6-8.9,19.9c-18.8,19.4-38.1,38.3-57.1,57.4c-4.5,3.6-8.6,8.5-15.4,5.8
			c-22.2-32.9-40.9-67.5-52.6-105.7c1-3.1,3.1-5,6.3-5.7C370.6,428,373.3,439.9,381,431.6z"/>
		<path class="st100" d="M413.5,539.3c3.6-2.9,7.2-5.8,10.8-8.7c43.1-1.4,86.2-1.6,128.4-12.1c7.1-5.3,13.3-11.2,13.5-20.9
			c0.4-5.4-0.9-10.7-0.5-16c10.8-33.4,22.2-66.7,27.8-101.3c-3.5,4.7-2.3,15.5-13.4,13.1c-4.5-3.5-3.3-7.6,1.3-14.5
			c-8,8.4-9.6,22-22.4,12.4c18.7-24.8,40.8-46.5,64-67c0,5.2-0.1,10.4-0.1,15.5c3.7,19-5.5,36.1-9.2,53.7
			c-8,37.3-16.3,74.7-26.5,111.6c-3.5,6.2-7.7,12.3-5.2,20c-1,6.3-4.6,11.3-8.4,16.1c-5.9,4.1-9.4,14.4-19.6,8
			c0.3-8-2.4-10.4-11.4-10c-31,1.4-61.7,4.9-92.6,7.4c-11.8,0.9-23.6,3.6-35-2C413.3,543.1,412.9,541.4,413.5,539.3z"/>
		<path class="st101" d="M555.6,518.9c1.1,3.8,2.9,7.5-3.9,8c-32.4,2.5-64.8,5.8-97.3,7.5c-9.9,0.5-21.7,9.6-30-3.9
			c18.5-19.3,37.1-38.6,55.5-58c4.9-5.2,11-9.4,13.2-16.7c22-21.5,44.1-43.1,66.1-64.6c12.5,5.4,12.1-13,23-11.7
			c-0.9,4.1-1.8,8.3-2.7,12.5c-7.3,17.3-19.5,30.8-34.1,41.9c-14.1,10.8-26.5,23.2-38.8,35.8c-15.1,15.2-31.1,29.6-48.4,50.3
			c17.7-5.3,30.6,5.2,43.7-3c1.8-0.8,3.6-1.3,5.4-1.8c14.5-2,29-0.1,43.5,0.5C552.7,516.3,554.3,517.4,555.6,518.9z"/>
		<path class="st98" d="M365.1,427.7c-1.4,1.4-2.8,2.7-4.2,4.1c-14.6-1.8-10.4-15.9-15.6-23.9c-6.4-23.2-22-41.8-31.7-63.3
			c-2.9-6.5-5.4-13.3-8-20c-2.8-4.7-2.7-8,4-8c1.3,1.3,2.6,2.6,4,4c7.1,3.1,6.2,10.1,7.9,15.9C332.5,368.5,356.3,394.5,365.1,427.7z
			"/>
		<path class="st13" d="M392.7,149.7c-0.9,3,10.9,11-3.4,8.7c-5.1-0.8-8.8,2.1-12.9,4c-6,0.3-9.5-3.4-12.2-8.1
			C373.7,152.7,383.2,151.2,392.7,149.7z"/>
		<path class="st99" d="M309.5,316.5c-3.2,1.7-3.9,4.7-4,8c-1.2-0.1-2.4-0.2-3.5-0.2c-1.6-3.9-3.2-7.8-4.8-11.7
			c1.3-5.8-1-10.9-3.5-15.8C307,296.9,304.6,309.6,309.5,316.5z"/>
		<path class="st99" d="M321.4,336.4c-2.6-5.3-5.3-10.6-7.9-15.9C324.5,321.6,326.7,327.2,321.4,336.4z"/>
		<path class="st1" d="M908.7,189.6c0,1.3,0,2.6,0,3.9c-8.9,1.4-17.3,3.2-23.5,11.1c-27.9,36.3-70.8,58.1-95.3,97.8
			c-4.4,7.2-12.1,12.5-22,8.1c-0.7-0.7-1.3-1.3-2-2c2.3-24.8,6.2-49.5,9.7-74c6-42.8,6.4-85.3,5.8-128.1
			c-0.2-16.5-0.8-32.9,2.7-48.8c3-13.5,15.7-8.9,23.4-6.6c32.7,9.7,64.8,21.6,99,25.9c3.9,0.5,8.5,2.2,11.6,0.7
			c7.3-3.4,14.5-8.1,19.5,1.9c4.3,8.6,7.9,18-0.9,26.5c1.4,1.6,2.5,3.3,3.5,5.2c2.2,7.2,1.5,14.5,1.6,21.8c0,3.1-0.2,6.2-0.8,9.3
			c-3.9,9-5.8,19.8-18.5,20.9c-7-4-3.4-10.4-3.5-15.9c-0.2-4.9-1.1-9.3-5.9-11.5c-5.3-2.5-8.8,0.9-11.7,4.5
			c-5.4,6.7-11.3,12.7-18.2,17.8c-3.3,2.5-5.8,5.8-3.4,10.1c2.1,3.7,5.7,5.1,10,4.8c7.3-0.6,15.2-6.8,21.6,2.2
			C913.3,180.7,912.5,185.4,908.7,189.6z"/>
		<path class="st102" d="M750.2,193.5c7.5-9.9,2.2-21.2,3.7-31.8c-1.8-37.4,6.5-74.4,4.4-111.9c-0.3-4.9,2.4-10,3.7-15
			c23.7-0.4,11.5,18.8,10.8,25.8c-2,19.1-6.8,38.1-6.8,57.6c0.8,27.8-1.7,55.6,0,83.3c0,1.3,0,2.6,0,4c-6.9,13.2,1.8,26.5,0,39.7
			c-10.1,10.3-6.6,25.1-6.3,35.7c0.6,16.4-7.4,29-9.6,43.7c1,3.6-0.4,4.9-4,4c-2.8-35.9,6.4-71.3,3.9-107.2
			C750.1,212,750.2,202.8,750.2,193.5z"/>
		<path class="st102" d="M861.1,42.8c1.3,10,9.2,6.8,15.2,8.1c7.5,1.6,14.8,4.1,21.5,8.7c-38.2,1.5-71.3-24.1-109.9-20.3
			c18.2-8.2,35.3-1.1,52.5,2.7C847.3,43.5,854,48.2,861.1,42.8C861.1,42.8,861.1,42.8,861.1,42.8z"/>
		<path class="st103" d="M765.9,201.5c-4.4-0.5-9-2.9-7.4-7.2c8.3-22.7,1.6-46.1,4.3-68.9c0.3-2.5,2-4.8,3.1-7.3
			C776.2,145.9,770.6,173.7,765.9,201.5z"/>
		<path class="st104" d="M746,328.4c1.3-1.3,2.6-2.6,4-4c10.4-0.2,9-12.1,15.9-15.9l0,0c18.3,9.3,4.7,18.5,0,27.8
			c-6.2,3.6-11.5,9.6-19.8,7.9C746,339,746,333.7,746,328.4z"/>
		<path class="st103" d="M765.9,245.1c-7.9-13.2-13.5-26.5,0-39.7C771.2,218.7,773.9,231.9,765.9,245.1z"/>
		<path class="st105" d="M964.3,98.3c0,2.6,0,5.3,0,7.9c-1.3,1.3-2.6,2.6-4,4c-2.6-1.3-5.3-2.6-7.9-4
			C950.6,94.9,957.7,96.9,964.3,98.3z"/>
		<path class="st105" d="M936.5,110.2c0-1.3,0-2.6,0-4c4,1.3,7.9,2.6,11.9,4c0,1.3,0,2.6,0,4c0.5,3-0.4,5-3.7,5.3
			C937.9,120,939.6,113,936.5,110.2z"/>
		<path class="st106" d="M702.7,412.5c-9.7,10.3-18,22.2-31.9,27.7c-9.5-31.1-9.5-31.1,13.7-47.9c-21.7-9.5-39.2-25.2-59.5-36.5
			c-1.9-4-1.6-7.8,0.6-11.6c5.8-2.3,0-17.7,13.2-11.7l0.1,0c9.3,20.8,24.6,30.5,43.6,27.7c14.9,8.6,31.6,14.5,43.5,27.8
			C719.9,397.7,710.9,404.7,702.7,412.5z"/>
		<path class="st107" d="M682.6,360.2c-0.8,1.7-1.2,3.9-2.5,5c-8.6,7.3-21,0.1-21.9-3.1c-3.4-12.5-31-8.8-19.2-29.6
			c1.3,0.1,2.6,0.2,3.9,0.4C653.8,345.3,672.2,346.9,682.6,360.2z"/>
		<path class="st107" d="M702.7,412.5c5.3-10.5,14.1-17.7,23.4-24.5c0.1,1.4,0.3,2.8,0.4,4.2C719.6,400.2,713.6,409.3,702.7,412.5z"
			/>
		<path class="st108" d="M627.1,344.3c0,4-0.1,7.9-0.1,11.9c-1.1,20.7,6,41.7-10.1,61.3c-8.7,10.6-7.8,27.5-11,41.5
			c-3.7,15.9-6.1,32.1-11.4,47.6c-1.7,5.2-6.8,5.7-10.6,8.1c-3.1-0.8-2.2-2.9-1.6-4.9c12.7-56.9,24.2-114.1,40.7-170.1
			c1.3,0.3,2.5,0.4,3.8,0.3c1.2,0.9,1.7,1.8,1.4,2.8C627.8,343.8,627.5,344.3,627.1,344.3z"/>
		<path class="st107" d="M627.1,344.3c-0.1-1.4-0.2-2.9-0.3-4.3c1-4.7-1.8-11,4-13.5c4.3-1.9,6.5,2.4,8.1,5.9
			C630.2,331.7,632.2,341.5,627.1,344.3z"/>
		<path class="st109" d="M400.5,530.8c-5.9-4.7-8,1.9-11.6,4c-18.6,0.1-24.3-15.3-29.8-27.9c-6.1-14.1-13.5-27-22.7-39.1
			c-13.8-18-23.3-38.3-30.5-59.7c-1.6-9-3.9-17.9-5.2-26.9c-0.7-4.4-2-7.6-7.5-5.5c-15.8,2.1-7.9-6.5-5.6-12.5
			c0.1-9.2,5.8-17.2,6.1-26.4c14.2,1.7,11,17.8,19.8,23.9c2.8,5,3.7,11,7.7,15.3c5.1,15.1,16.5,26.3,24,40
			c22.3,34.9,37.1,73.7,57.3,109.7C403.4,527.4,402,529.5,400.5,530.8z"/>
		<path class="st110" d="M222.2,598.3c6.6-19.8,13.2-39.7,19.8-59.5c4.2-2.3,7.6-5.8,11.9-7.9c5.7,0,9.6-2.6,11.9-7.8
			c4.6-3.1,12.6-3.8,11-11.8c-1.7-8.5-9.1-8.1-15.8-8.2c-5.3-0.1-10.5-0.2-15.8-0.2c0-1.2,0.3-2.4,0.6-3.6c3.5-6.2,5.6-12.8,7-19.7
			c7.2-2.6,12.6,2.9,19.1,4c6.7,9.8,19.5,9.2,27.8,16.4c2.3,20.3-2.3,29.3-18.9,35.6c-17.8,6.7-27.5,21.4-30.4,38
			c-3.8,21.8-13.1,42.8-10,65.9c1.1,8.5-3.9,15.1-13.9,15.3C218,636.5,225.1,617,222.2,598.3z"/>
		<path class="st111" d="M289.7,364.2c-0.9,2.8-1.8,5.7-2.7,8.5c2.2-0.2,4.4-0.4,6.6-0.6c10.8,1,6.1,9.4,6.9,15
			c2.5,16.3-7.7,28.6-14.5,41.5c-4,7.6-11.8,7.2-17.3-0.8c-0.9-4.2-1.7-8.5,0.9-12.4c2.8-17.9,7.6-35.2,15.3-51.6
			C286.7,361.9,288.3,362,289.7,364.2z"/>
		<path class="st112" d="M400.5,530.8c-15.6-31.7-31.3-63.3-46.9-95.1c-3.1-6.4-5.7-13.2-8.5-19.8c0-2.7,0.1-5.5,0.1-8.2
			c5.2,8,10.4,15.9,15.6,23.9c14.9,37.2,35.2,71.7,52.7,107.6c0.1,1,0.4,1.9,0.9,2.8c-1.3,1.4-2.9,2-4.8,1.8
			c-6.7-1.6-5.4-8.8-8.8-12.7L400.5,530.8z"/>
		<path class="st113" d="M269.6,415.4c0.1,4.1,0.1,8.2,0.2,12.2c4.5,13.1-0.1,23.5-9.7,32.4c-0.9-0.4-1.9-0.8-2.8-1.2
			C258.6,443.7,263.8,429.4,269.6,415.4z"/>
		<path class="st113" d="M254,479.3c0.1,7.8-1.6,14.9-8.2,19.9c1.9-14,4.8-27.6,11.5-40.2c0,0,0.8,0.5,0.8,0.5
			C264,467.6,262.6,474.2,254,479.3z"/>
		<path class="st114" d="M289.7,364.2c-1.6-0.1-3.1-0.2-4.7-0.4c0.9-9.7,2-19.3,8.7-27.1C294.8,340.7,292.8,354.1,289.7,364.2z"/>
		<path class="st114" d="M321.2,376c-6.8-3-8.1-8.8-7.7-15.3C318.8,364.4,320.9,369.7,321.2,376z"/>
		<path class="st97" d="M781.8,903.5c-0.1,16.4-18.5,31.7-32.3,29.8c-3.9-0.5-7.7-3.7-6.4-5.7c6.4-10.8,2.1-23.9,8-34.2
			c3.7-6.3,9.3-9.5,18.3-6.4C779.9,890.4,783,896.3,781.8,903.5z"/>
		<path class="st115" d="M254,530.8c-0.5,7.8-3.2,12.3-11.9,7.9c0-2.6,0-5.3,0-7.9C246,529.8,250,524.5,254,530.8z"/>
		<path class="st62" d="M196.5,888.4c-8.4-2.2-21.8-3.6-19.3-12.2c2.7-9.3,12.7-17.9,26.2-18.4c10.4-0.4,18.9,2.9,17.7,12.4
			C219.5,882.3,207.1,885.4,196.5,888.4z"/>
		<path class="st116" d="M254,816.5c12.8,0.8,23.8,5.4,31.7,15.9c-11.8,18.5-20.1,20.3-36,7.7C237.9,830.9,239,824.7,254,816.5z"/>
		<path class="st117" d="M123,840.4c-2.6-2.6-5.3-5.3-7.9-7.9c-7.3-16.8-6.1-29.6,4-39.7C141.6,810.8,142.6,823.4,123,840.4z"/>
		<path class="st118" d="M218.3,792.8c7.8,3.8,15.9,7.2,19.9,15.9c-3.4,3.9-6.3,8.4-10.2,11.7c-7,6-14.3,6.1-20.3-1.8
			c-5.8-7.5-5.3-14.3,3.1-19.8C213.4,797,215.7,794.8,218.3,792.8z"/>
		<path class="st119" d="M158.7,761c8.5,0.9,14,6.7,19.8,11.9c-0.4,8.4-5.8,13.2-12.8,16c-7.7,3.2-15.7,4-20.6-4.6
			c-5.1-9,0.3-13.3,8.4-15.7C157.4,767.4,158.3,764.4,158.7,761z"/>
		<path class="st61" d="M119,792.7c-5.8,12.8-6,26.1-4,39.7c-6.6,5.6-3,13.2-4,19.8c2.5,2.6,2.3,5.3,0,7.9c-0.1,0.6-0.1,1.3-0.4,1.9
			c-0.9,2.1-3.3,2.6-3.4,0.5c-0.4-13.6-0.2-27.3-0.2-40.9c0-16.2,0-32.5,0-48.7C120.3,774,119,783.8,119,792.7z"/>
		<path class="st61" d="M107.2,891.9c-0.7-9.6-0.6-18.1,11.9-7.9C116.8,889.3,112.9,891.9,107.2,891.9z"/>
		<path class="st12" d="M186.5,272.9c-27.8-5.3-55.8-10-83.4-16.3c-8.4-1.9-17.3-6.3-24.7-2.1c-19.2,11.1-20.2-4.6-21.6-15
			c-0.9-6.8,0.6-16.1,6.9-21.6c14.9-12.9,5-25.8-3.1-33.6c-7.3-7-10.8-13.7-12.9-22.5c17.7-20.9,37.9-40,32.8-72.1
			c-1.8-11.2,1.9-24.1,19.7-21.4c6.3,1,12.9-0.9,19.3-0.6c26.4,1.4,34.5,8.4,41.5,35.3c0.5,1.8,0.8,3.9,1.9,5.3
			c19.7,27.7,28.9,61.1,49.1,88.7c13.7,18.6,18.4,43.1,39.3,57.6c3.9,2.7,2.5,16.1,0.3,23.6c-2,6.7-9.8,4-15.7,3
			C219.4,278.2,203,275.6,186.5,272.9z"/>
		<path class="st120" d="M953.3,199.1c7.6,18.6,5.5,32.4,1,45.8c-7.1,21.1-13.4,42.1-10.7,65c1,8.3-6.3,15-8.1,23.6
			c-2,10-4.4,19.2-3.4,29.8c1.3,14.4-13.8,25.3-27.7,20.5c-22.1-7.6-44.1-15.7-65.9-24.2c-15.5-6.1-15.4-16.7-7.7-30.4
			c23.3-41.4,61.9-68,93.7-101.1C933.2,219,947,215.6,953.3,199.1z"/>
		<path class="st42" d="M738.1,522.9c16.6,19.8,15.4,33.5-4,43.7C734,551.9,734.8,537.3,738.1,522.9z"/>
		<path class="st121" d="M718.6,579.8c1.8-13.6-5.5-28.1,4.4-40.8C722.3,552.6,724.1,566.6,718.6,579.8z"/>
		<path class="st96" d="M714.7,619.1c4.5-7.8-11.1-18.3,3.3-24.8C718.3,602.8,719,611.3,714.7,619.1z"/>
		<path class="st11" d="M257.9,66.5c-3.2-6.6-7.1-13.9-0.6-20.1c7.7-7.3,10.8,3.9,16.2,5.1c14.4,3.3,29.1,4.6,43.9,3
			c5.2,10.3,16.5,14.7,25.1,17.2c19.3,5.4,29.1,23.7,47.2,30.3c8.9,3.2,7.9,12.4,3.1,20c-13.5,10.4-27.2,10.9-41.2,1.2
			c-1.7-0.8-3.3-1.8-5-2.8c-27.5-15.7-53.5-33.9-80.8-50C263.2,69.2,260.6,67.9,257.9,66.5z"/>
		<path class="st73" d="M265.9,70.5c17.6-6.5,24.2,12.5,36.4,18c16,7.2,33.5,16.2,46.9,29.7c-4,3.5-7.9,2.8-11.9,0
			c-22.2-5.1-37-22.4-55.3-33.8C276,80.7,271.2,75.2,265.9,70.5z"/>
		<path class="st72" d="M337.3,118.1c4,0,7.9,0,11.9,0c7.7,6.3,15.5,12.1,26.5,10.1c4.2-0.7,7.6,1.5,9.2,5.7
			c-10.3,14.9-20.8,6.9-31.4,0.3C346.9,130.1,341.1,125.1,337.3,118.1z"/>
		<path class="st73" d="M384.9,134c-10.9-7.6-29.2,1.5-35.7-15.9c13.9,8.8,28.6,8.5,43.7,4c0,2.6,0,5.3,0,7.9
			C389.6,130.1,386.6,130.8,384.9,134z"/>
		<path class="st35" d="M63.5,808.6c0-5.3,0-10.6,0-15.9c-4.1-6.7-8.7-13.2-7.2-21.8c3.1-12.8-3.2-26,1.4-38.7
			c1.4-4.4,4.7-5.6,8.9-5.3c14.8,3.4,11.3,16.5,14.3,26.3c2.3,7.6,1.2,15.3,2,22.9c0.7,4.4,2.1,8.7,3,13.1c0.7,4.7-0.4,9.1-1.9,13.5
			c-6.2,10.8-3.4,22.2-2,33.5c-0.2,6.6-1.7,12.9-4,19c-1.4,2.6-3.6,4.3-6.5,4.9c-2.6-1.3-5.3-2.6-7.9-4c-1.1-1.3-1.7-2.7-1.9-4.4
			c0-4.1-0.3-8.2-0.6-12.4C56.3,828.7,48.5,817.7,63.5,808.6z"/>
		<path class="st105" d="M63.5,808.6c-12.7,10.6,6.3,21.2,0,31.7c-4.3,4,3.3,7.9,0,11.9c0,1.3,0,2.6,0,4c-1.3,1.3-2.6,2.6-4,4
			c-4.6-0.7-5.4-5.2-7.9-7.9c-5.5-9.9-3.8-21.2-5.4-31.8C44.1,807.5,55.9,810,63.5,808.6z"/>
		<path class="st105" d="M71.4,860.2c1.3-1.3,2.6-2.6,4-4c4.9-3-2.2-18.1,11.9-11.9c0,13.2,0,26.4,0,39.7
			C78.9,878.1,74,870,71.4,860.2z"/>
		<path class="st122" d="M51.6,852.3c3.8,1.5,6.4,4.2,7.9,7.9c0.9,10.3,10,18.5,7.9,29.7c-0.6,2.9,0.5,7.2-4.4,6.8
			c-3.3-0.2-7.5-2.6-6.7-5.8C60.1,877.2,49.3,865.6,51.6,852.3z"/>
		<path class="st123" d="M59.5,733.2c0.4,11.9,4.6,23.8,0,35.7c-0.8-0.3-1.6-0.6-2.3-0.9c-4.6-3.5-8.6-7.8-13.5-11
			c0.1-9.9,2.7-18.5,11.9-23.8C56.9,731.6,58.2,731.5,59.5,733.2z"/>
		<path class="st80" d="M59.5,733.2c-1.3,0-2.6,0-4,0c-2.7-2.7-5.3-5.3-8-8c8.4-7.4,18.5-2.5,27.7-4c5.4-3.9,11-4.9,16,0.2
			c2.5,2.6,1.8,6.2-0.4,9c-4,5.2-9.1,4.3-14.2,2.1c-3-1.3-6.5-1.2-9.2-3.3C64.2,729.3,61.2,730,59.5,733.2z"/>
		<path class="st123" d="M59.5,768.9c1.3,7.9,2.6,15.9,4,23.8c-13.7-8-10.4,11.9-19.8,11.7c0-3.9,0-7.8,0-11.7
			c3.7-6.3,2.1-13.5,3.6-20.1C49,765.2,52.4,760,59.5,768.9L59.5,768.9z"/>
		<path class="st124" d="M59.5,768.9c-7.4-4-10.5,1.2-9.7,6.6c1.2,7.5-0.9,12.7-6.2,17.2c0-11.9,0-23.8,0-35.7
			C54.5,753.6,56.7,761.7,59.5,768.9z"/>
		<path class="st125" d="M59,919.7c-1.8,7.2,0.8,13.7-4.7,14.2c-4.4,0.5-6.2-4.1-2.5-8.3C53.1,924.2,54.8,923.2,59,919.7z"/>
		<path class="st105" d="M67.5,729.3c2.5,0,5.1,0.4,7.6,0c4.9-0.8,13.5,6.1,14-3c0.5-8.1-8.9-3.6-13.8-5c0-1.5-0.1-3-0.1-4.5
			c6.4-3.7,13.1-3.2,20-1.9c-0.2,32.6-0.3,65.2-0.5,97.7c-2.5-1.3-4.9-2.7-7.4-4c-3.9-1.4-4.9-5.7-7.9-7.9c1.3-4,2.6-7.9,4-11.9
			c0-4.4,0.5-9-4-11.9C74.1,761.3,80.3,742.9,67.5,729.3z"/>
		<path class="st105" d="M79.4,800.7c5.2,0.1,7.8,2.8,7.9,7.9c0,10.6,0,21.2,0,31.7c-4.5,2.5-6-1.3-7.9-4
			C71.8,824.5,76.1,812.6,79.4,800.7z"/>
		<path class="st48" d="M79.4,836.4c2.6,1.3,5.3,2.6,7.9,4c0,1.3,0,2.7,0,4c-8.7-0.8-6.7,9.2-11.9,11.9
			C75,849.3,75.6,842.5,79.4,836.4z"/>
		<path class="st126" d="M765.9,336.4c-0.2-9.3,11.6-18.5,0-27.8c21.4,1.5,27.7-17.7,37.9-29.8c16.5-19.5,32.2-38.7,55.9-50.7
			c8.9-4.5,14-16.5,20.6-25.2c7.4-9.9,16.2-14.6,28.4-9.4c-20.4,13.2-33.2,34-50.5,50.4C826.5,273.7,799.2,308.1,765.9,336.4z"/>
		<path class="st48" d="M908.7,189.6c0-5.3,0-10.6,0-15.9c-1-9,5.8-10,11.9-11.9c9.6-3.1,11.8-12.3,15.9-19.8
			c6.4-3.1,10.9,1.3,15.9,4C937.2,159.8,927.5,179.2,908.7,189.6z"/>
		<path class="st48" d="M936.5,110.2c4.3,0.5,4.8,12.1,11.9,4c10.2,5.3,5.6,10.6,0,15.9c-3.8,1.9-5.6,9.7-11.9,4
			C936.5,126.1,936.5,118.1,936.5,110.2z"/>
		<path class="st105" d="M936.5,134c5.1,2.1,6.6-6.8,11.9-4c-0.6,5.8,1.3,10.9,4,15.9c-5.8,0.6-10.9-1.3-15.9-4
			C936.5,139.3,936.5,136.7,936.5,134z"/>
		<path class="st127" d="M98.1,616.3c8,3.3,13.3,8.8,16.9,16c7.5,14.8,10.2,31.4,20,45.6c6.9,10,0.3,18.1-10.6,14.7
			c-13.1-4.1-25.7-2.6-38.6-3.2c-14-0.6-19.1-10.5-10.3-21.1c11.1-13.4,15-29,16.9-45.5C92.9,619,94.8,617.2,98.1,616.3z"/>
		<path class="st117" d="M111.1,860.2c0-2.6,0-5.3,0-7.9c2.7-0.4,6.5-3.8,7.4,1.4C119.3,858.6,115.2,859.8,111.1,860.2z"/>
		<path class="st128" d="M594.5,506.6c-4-17.8,2.8-34.6,7.3-50.8c5.3-19.2,1.5-42.1,21.6-57.1c3.2-2.4-3.8-19.3-0.5-29.9
			c1.3-4.2-0.3-9.3,4.2-12.5c14,2.8,25.8,8.3,35.3,20c7,8.6,23.3,4.8,28.7,18.3c-7.1,2.3-12.4,7-17.4,12.4
			c-5.6,6.1-14.9,11-0.5,18.6c9.1,4.8-2.4,9.6-2.2,14.7c-16.9,19.2-37.4,34.1-58.1,48.9C605.9,493.9,600.5,500.7,594.5,506.6z"/>
		<path class="st129" d="M582.3,509.8c0.5,1.6,1,3.3,1.6,4.9c6.1,12.8,14.1,7,20.9,1.4c23.8-19.6,47.2-39.6,70.7-59.6
			c11.5-9.8,22.6-20,34-29.9c2.8-2.5,5.3-6.9,9.8-4.5c4.2,2.2,3.2,7,2.8,10.7c-3.1,31.3-4.9,62.8-10.3,93.6
			c-2.6,14.7,3.9,30.4-5.4,44.1c-10.1-2.7-14.5-10.2-16.2-19.8c9.1-29,2.8-59,7.4-90c-12.9,2-16.8,11-22.9,17.3
			c-18.1,18.7-30.4,43.4-56.3,54.1c-6.1,2.5-11.6,6.4-18.5,6.1c-5.9-0.6-11.6-2.1-17.1-4.3c-2.8-1.6-4.8-3.6-4.1-7.1
			C580.4,521.3,578,514.8,582.3,509.8z"/>
		<path class="st130" d="M694.4,550.7c-0.4,9.2,9.1,12.5,11.9,19.8c4.4,22.4-5.2,43.8-4.6,66c0.1,3.6-3.8,4.9-7.2,5.4
			c-10.8-8.6-21.8-16.8-27.4-30.3c-3.8-9.2-15.1-9.9-21-17.2c-4.1-5.1-9.3-9.3-13.9-14.1c-16.1-16.9-15.6-19.2,6-26.9
			c5-1.2,9.3,0.6,13.4,3c2.4,1.6,4.4,3.5,6.2,5.7c7.7,9.5,17.8,16.4,27.2,27.9c2.3-11.3,3.1-20,2.7-28.9
			C687.4,556.6,686.1,550.2,694.4,550.7z"/>
		<path class="st131" d="M638.9,554.6c-0.2,11.2-9.4,5.5-17,8.3c14.8,13.4,25.8,28.1,42,38.7c14.1,9.3,16.4,29.7,30.6,40.2
			c-0.2,1.7-0.4,3.4-0.6,5.1c-15.6-15.1-31.2-30.2-46.7-45.3c-8-0.8-12.9-6.7-17.1-12.3c-11.5-15.3-25.3-28.3-38.5-42
			c-4.3-4.5-10.5-8.5-8.3-16.5c5.8-0.9,10.9,1.1,15.9,3.8c7.3,2,11.4,15.4,23.2,4.2C625.9,535.7,642.4,539.4,638.9,554.6z"/>
		<path class="st46" d="M646.8,657.8c-3.9,0-7.9,0-11.8,0c-3.1-4-6.3-7.7-11.9-3.9c-9.4,5.3-18.8,7.8-29,1.8
			c-4.2-2.5-9.4-2.9-13.2,0c-16.5,12.7-33.7,1.2-49.9,0.2c-15.5-1-6.7-16.4-7.1-25.8c5.1-14,19.7-20.1,26.7-33
			c5.8-10.7,14.6-19.7,19-31.5c2.6-7,7.7-12,15.9-12.5c3.2,0.5,5.1,2.5,5.9,5.5c2.1,30.1,26,46,44.2,65c6.9,7.2,13.9,14,19.3,22.3
			C654.3,651.3,650.1,654.2,646.8,657.8z"/>
		<path class="st132" d="M414.4,542.1c46.5,0.2,92.5-6.6,138.7-10.2c3.8-0.3,7.5-0.6,11.4-0.9c1.2,9.2-9.5,11.6-9.1,19.5
			c-4.3,21.1-17.7,36.5-31.8,51.6c-18.9,18.9-27.3,45.6-47.3,63.7c-18.4-14.3-25.1-36.2-34.8-55.8c-8.3-16.9-14.9-34.7-25.9-50.2
			c-3.5-4.8-7.2-9.6-3.7-16.1C412.8,543.2,413.6,542.6,414.4,542.1z"/>
		<path class="st90" d="M523.7,602.1c7.4-19.2,21.3-34.3,31.8-51.6c5.3-3.9,10.6-7.9,15.9-11.8c11.1-0.4,16.4,4.9,16,16
			c-20.1,7.6-18.9,30.9-32.2,44.6c-10.1,10.4-19.7,21.6-31.3,30.8C508.6,620.8,528.4,611.4,523.7,602.1z"/>
		<path class="st133" d="M417,557.8c19.6,26.6,30.3,57.9,46.4,86.3c4.2,7.3,6.1,16,12.9,21.7c-0.5,1.3-1,2.5-1.5,3.8
			c-11-4.1-12.9-15.7-20.7-25.3c-2.2,10.3-4.6,16.2-13.7,4.6c-7.4-9.4-8.4-21.8-17.2-30.1c-3.9-3.7-1.6-9.3,1.8-12.3
			c4.7-4,4.5,8.3,11.2,3.1c-4.1-13.9-10.5-27.2-19.7-39.1c0-2.6-0.1-5.3-0.1-7.9C415.3,560.8,415.5,559.3,417,557.8z"/>
		<path class="st90" d="M623,653.9c2.5-4.8,6-9.7,11.8-6.7c4.1,2.1-0.8,7,0.1,10.6c-1.3,0-2.7,0-4,0
			C628.3,656.5,625.7,655.2,623,653.9z"/>
		<path class="st59" d="M226.2,653.8c5.6-3.5,11-6.6,10.5-14.9c-2-36.1,5-69.8,25.7-100.2c2.8-4.2,5.4-7.7,10.4-7.6
			c23.1,0.7,23.5-16,24.8-32c-2.5-2.5-3.2-5.5-2.7-9c3.5-24.8,2.5-25.9-23.2-25.6c-6-7.3,1.1-12.1,3.5-17.5
			c5.4-11.8,15.9-20.7,18.9-34.3c1.6-7.5,8-10.2,15.3-4.9c13.3,39.7,45.5,69.1,59.3,108.3c4,11.4,16.1,9.8,20,18.7
			c-0.5,2.6-2.4,6.4-1.3,7.5c15,16.6,8.3,41.4,22.4,58.4c8.6,10.3,6.4,24.8,14.2,36.4c7.9,11.9,12.6,25.8,26.1,34.3
			c-9.9,5.1-17.3-3.8-25.6-1.8c-5.3,0-10.6,0-15.9,0c-22.7,2.7-45.8,2.6-67.9,9.6c-3.8,1.2-7.6-1-11.4-1.7c-2.6,0-5.3,0-7.9,0
			c-19.6,4.4-40-2.4-59.5,4c-1.3,0-2.6,0-4,0c-13.6,5.1-27.6,5.3-41.7,2.6C213.5,672.1,212.1,660.5,226.2,653.8z"/>
		<path class="st133" d="M424.2,595.4c-7.4,2.4-9.7-1.4-12.1-4.2c-4.9-5.5-4.5-12.8-2.8-18.7c1.1-3.9,6.7-6.9,7.5,1.9
			c0.3,3.2,1.5,6.3,2.6,9.4C420.8,587.4,422.4,591,424.2,595.4z"/>
		<path class="st109" d="M417,557.8c-0.2,1.6-0.3,3.2-0.5,4.8c-14.9-5.6-16.3-18-15.8-31.4c3.8,4.2,7.5,8.4,11.3,12.6
			C413.7,548.5,415.4,553.1,417,557.8z"/>
		<path class="st91" d="M587.3,554.7c-3.8-6.8-9.1-12.1-16-16c2.4-4,4.9-7.9,7.3-11.9c1.5,1.4,3.1,2.8,4.6,4.2
			c21.3,23.6,42.6,47.2,63.9,70.8c4.2,20.2,26.5,26.6,32.4,45.9c-33.6-25.5-62-56.2-88.3-89C589.9,557.3,588.6,556,587.3,554.7z"/>
		<path class="st88" d="M646.8,657.8c0.1-5.7,2.7-9.7,8-11.8c10.1,3.9,3.2,7.9,0,11.8C652.1,657.7,649.5,657.7,646.8,657.8z"/>
		<path class="st134" d="M226.2,653.8c-5.7,9.8-8.1,20.5-7.9,31.7c-0.2,2.4-2.8,2.5-4,4c-11.6,3.6-19.8,3.9-12.6-12.3
			c1.5-3.3,0.5-7.7,0.7-11.5c11-14.5,12.6-32,15.8-49c1.2-6.2-2.1-13.3,4-18.4C231.1,616.3,227,635.2,226.2,653.8z"/>
		<path class="st89" d="M329.4,677.7c15.9-8.9,34.7-2.8,51.2-10.6c8.5-4,19.1-2.6,28.1,2.6c-3.2,2.2-6.3,6.2-9.5,6.2
			C375.9,675.8,352.8,683.1,329.4,677.7z"/>
		<path class="st89" d="M261.9,681.6c7.1-12.8,19.3-7.4,29.5-7.4c10,0,20,2.2,30.1,3.5C301.8,681.8,282.4,690.8,261.9,681.6z"/>
		<path class="st89" d="M214.3,689.6c1.3-1.3,2.6-2.6,4-4c12.8-5.6,26.1-5.8,39.7-4C245.7,697.1,228.7,686.3,214.3,689.6z"/>
		<path class="st73" d="M555.6,518.9c-1.3,0-2.6,0-4,0c-15.9-3.5-31.7-5.5-47.6,0h0c-6.7,3.1-13.5,4.7-20.8,2
			c-12.3-4.6-14.3-11.9-6.2-22.3c8.5-10.9,19.5-19.6,27-31.3c21.4-28.9,54.7-45.8,75.4-75.4c11.4-1.2,6-11.3,9-16.9
			c2.4-4.6,5.5-10.8,11.4-8.6c5.9,2.2,1.7,7.7,0.6,11.8c-8.5,32-16.8,64.1-25.6,96c-0.9,3.4-4.8,6-7.2,9c-5.9,2.5-9.7-2.8-14.8-3.6
			c-8.1-1.3-13.1,2.8-13.8,10.3c-0.7,7.4,5.1,9.9,11.4,11c7.2,1.3,13.7-5.5,21.1-1.8C569.3,508.3,567.6,517.7,555.6,518.9z"/>
		<path class="st135" d="M571.4,499.1c-4.2,2-8.2,4.4-12.5,6c-10.8,4.1-20.1,0.6-25.6-8.7c-5-8.4,1.7-14.7,7.6-20.4
			c9.2-9,15.2-2.2,21.6,3.9c1.4,1.3,3.3,2.1,5,3.2C573.3,487.4,570.9,493.6,571.4,499.1z"/>
		<path class="st100" d="M504,467.3c-0.5,14.2-15.1,18.8-20.3,30c-2.3,4.9-11.2,7-8.1,13.9c3.3,7.6,11.1,8.1,18.6,7.7
			c3.3-0.2,6.5,0,9.8,0c-6.5,7.1-13.6,9.8-22.8,4.6c-2.6-1.5-6.2-2.1-9.3-1.9c-6,0.3-13.3,9.8-17.2,1.9c-3.5-7.3,5-14,10.6-19.5
			C478.2,491.7,491.1,479.6,504,467.3z"/>
		<path class="st100" d="M504,518.9c15.9-12.3,31.7-7.1,47.6,0C535.7,518.9,519.8,518.9,504,518.9z"/>
		<path class="st136" d="M920.6,161.8c-4,4-7.9,7.9-11.9,11.9c-11.5-0.8-24.9,15.4-34.4-2.1c-10-18.4,11.8-18.1,18.2-26.6
			c13.7-18.2,26.3-19.5,31.4-6.1C926.9,146.9,921.5,154.1,920.6,161.8z"/>
		<path class="st115" d="M309.5,407.8c-3.1,0.7-8.8,0.8-9,2c-3.9,20.4-22.5,33.4-26.7,53.5c5.7,8,5,14.8-4,19.8
			c-6.9,5.1-10.8-1.8-15.8-3.9c3.7-6.1,4.3-12.9,4.1-19.8c6.6-9.6,8.6-20.9,11.8-31.8c4.1,1.5,10.3,5.7,12,0.6
			c6-18.2,23.4-34.3,11.8-56.2c4.9-12.5,9.5-6.4,11.2,1C307.4,384.5,308.1,396.2,309.5,407.8z"/>
		<path class="st137" d="M269.8,483.2c3.8-6.1,4.4-12.9,4-19.8c9.3-8.9,18.1-5,25.6,2c7.1,6.7,7.4,14.4,0.6,22.5
			c-2.2,2.6-1.6,7.4-2.4,11.2C285.2,499.4,272.4,500.2,269.8,483.2z"/>
		<path class="st105" d="M79.4,776.9c2.4-0.1,6.4-1,6.8-0.1c2.1,4.4,1.7,8.8-2.8,12C78.7,785.9,79.5,781.2,79.4,776.9z"/>
		<path class="st48" d="M63.5,852.3c-0.9-4.9-8.8-7.2-5.9-13.2c1.4-3,4.3-1.1,5.9,1.3C64.5,844.3,69.8,848.3,63.5,852.3z"/>
		<path class="st54" d="M638.9,554.6c-5.3-9.9-8.6-18.1-22.3-5.9c-7.2,6.4-11.8-8.4-17.4-13.9c33.6-7.5,50.1-35.7,71-58.7
			c3.5-3.9,6.1-8.7,10-12.1c5.6-4.7,9.5-15.5,18.7-10.5c7.2,3.9,4,13.5,3.1,20.1c-1.8,13.5-4.8,25.7,1.3,40c5,11.7-11.3,23.1-8.8,37
			c-2.9,14.7-3.1,29.5-1.8,47.7c-17.7-8.3-28.7-21-37.9-35.8c4.1-2.8,9.1-1.1,13.3-2.6c6.8-2.5,11.3-7.2,10.5-14.7
			c-0.8-7.5-7-8.8-13.1-9.1c-7.6-0.3-12.8,2.5-13.1,11c-0.1,3.9,0.8,7.9-1.6,11.5C646.8,557.3,642.9,556,638.9,554.6z"/>
		<path class="st138" d="M650.8,558.6c-4.2-11.2-10.4-23.6,8-27.4c8.7-1.8,18.5-2,24.9,7.1c5.4,7.7,0.4,13.9-3.3,19.7
			c-6.7,10.3-15.8,10.2-25.6,4.5C653.4,561.3,652.1,559.9,650.8,558.6z"/>
		<path class="st139" d="M440.5,581.6c-3.3-2.3-5.1-8.7-7.1-14.7c-2.1-6.4,3.4-5,7-5.8c16.8-3.5,32.1-18.6,51.3-5.2
			c2.5,1.8,9.9,1.5,14.8,2.7c6.8,1.6,15.4-9.1,19.4,0c4.6,10.3-8.5,12.8-13.3,19.2c-3.3,4.4-6.8,7.5-12.3,9.1
			c-9,2.7-16.8,6.9-8,17.9c4.1,5.2,1.5,8.1-3.4,10.6c-6.2,3.2-6.9-1.2-9.8-5.3C470.3,597.4,466.6,576.8,440.5,581.6z"/>
		<path class="st137" d="M373.5,644c-10-4-24.4,1.5-23-12.4c1.1-10.7,10.1-20.6,22.5-20.3c8.8,0.2,19.8,4.4,18.7,15.7
			C390.6,637.2,382,642.8,373.5,644z"/>
	</g>
</g>
<g>
	<g>
		<path class="st140" d="M846.7,585.2c-0.3,0-0.7,0-1,0c0.6,1.4,1.2,2.8,1.8,4.3c0.1-0.1,0.2-0.2,0.3-0.3c1-0.9,1-2.7,0-3.5
			c-1-1-2.5-0.9-3.5,0c-0.1,0.1-0.2,0.2-0.3,0.3c-0.7,0.7-0.9,1.9-0.5,2.7c0.4,0.9,1.3,1.5,2.3,1.5c0.3,0,0.7,0,1,0
			c1.3,0,2.6-1.2,2.5-2.5C849.2,586.4,848.1,585.2,846.7,585.2L846.7,585.2z"/>
	</g>
</g>
<g>
	<g>
		<path class="st140" d="M160.7,41c0.7,0,1.5,0,2.2,0c1.3,0,2.6-1.1,2.5-2.5c-0.1-1.4-1.1-2.5-2.5-2.5c-0.7,0-1.5,0-2.2,0
			c-1.3,0-2.6,1.1-2.5,2.5C158.2,39.9,159.3,41,160.7,41L160.7,41z"/>
	</g>
</g>
<g>
	<g>
		<path class="st140" d="M163.4,41.3c1.4,0,2.7,0,4.1,0c1.3,0,2.6-1.1,2.5-2.5c-0.1-1.4-1.1-2.5-2.5-2.5c-1.4,0-2.7,0-4.1,0
			c-1.3,0-2.6,1.1-2.5,2.5C161,40.2,162,41.3,163.4,41.3L163.4,41.3z"/>
	</g>
</g>
<g>
	<g>
		<path class="st5" d="M272.6,348.6C272.9,348.2,272.2,349,272.6,348.6c0,0,0.1-0.1,0.1-0.1c0.1-0.1,0.1-0.1-0.2,0.2
			c0.1,0,0.3-0.2,0.4-0.2c0.4-0.2-0.5,0.2-0.1,0c1.2-0.4,2.2-1.8,1.7-3.1c-0.4-1.2-1.7-2.2-3.1-1.7c-1.4,0.4-2.4,1.3-3.2,2.4
			c-0.7,1.1-0.3,2.8,0.9,3.4C270.4,350.2,271.8,349.8,272.6,348.6L272.6,348.6z"/>
	</g>
</g>
<g>
	<g>
		<path class="st59" d="M253.6,512.5c-0.1,0.1-0.2,0.2-0.3,0.3c0,0.8,0,1.7,0,2.5c2.1-4.2,10.4-5,12.4-0.3c0.1-1,0.3-2,0.4-3
			c-1,1.2-1.8-1-1.9,1.5c-0.1,2.2,1.8,0.3,3.2-0.4c-1-1.3-2-2.6-3-3.9c-2.2,2-4.4,3.9-6.8,5.7c-1.7,1.3-1.6,3.9,0.6,4.6
			c1.7,0.5,3.1,0.7,4.8,0.6c-0.2-1.6-0.4-3.3-0.7-4.9c-2.3,0.7-5.2,0.3-7.4,1c-1.5,0.5-2.3,1.7-3.9,2.1c-2.6,0.7-6,0.2-8.7,0.3
			c-3.3,0.1-6.5,0.2-9.8,0.3c-3.2,0.1-3.2,4.9,0,5c3.5,0.1,8-1.5,9.9-4.7c0.7-1.1,1-2.3,0.6-3.6c-0.5-2-3.1-3,0-4.1
			c-1-1-2.1-2.1-3.1-3.1c-1.1,3.9-0.6,7.4,1.5,10.9c1,1.7,4.2,1.6,4.6-0.6c0.5-3,0.8-5.9,0.7-8.9c0-3.2-5-3.2-5,0c0,4,0,7.9,0,11.9
			c0,2.3,3.6,3.6,4.7,1.3c1.7-3.7,3-7.5,3.9-11.5c0.6-2.6-3.4-4.7-4.6-1.9c-1.6,3.8-2.9,7.6-3.9,11.6c-0.7,3.1,3.9,4.4,4.8,1.3
			c1.2-4.4,2.5-8.8,3.7-13.2c-1.5,0.2-3,0.4-4.6,0.6c0.2,0.8,0.4,1.5,0.6,2.3c0.1,2.4,3.4,3.5,4.7,1.3c0.7-1.2,1.2-1.4,0.1-1.8
			c1.3,0.5,2.7-0.5,3.1-1.7c0.1-0.4,0.2-0.8,0.4-1.2c0.8-2.7-3.2-4.4-4.6-1.9c-2.6,4.7-4.7,9.5-6.4,14.6c-0.7,2.3,2.6,4.4,4.2,2.4
			c1.8-2.2,3.8-4.3,5.9-6.2c-1.3-1-2.6-2-3.9-3c-0.9,2.2-1.8,4.3-2.8,6.5c-1.2,2.9,2.8,5.5,4.3,2.5c2.3-4.6,6.4-7.2,10.7-9.8
			c1.6-1,1.6-3.3,0-4.3c-2.6-1.6-5-1.2-7.3,0.7c-1.3,1.1-0.7,3.1,0.5,3.9c0.3,0.2,0.5,0.3,0.8,0.5c2.7,1.8,5.2-2.6,2.5-4.3
			c-0.3-0.2-0.5-0.3-0.8-0.5c0.2,1.3,0.3,2.6,0.5,3.9c0.4,0,0.8,0.1,1.3,0.1c0-1.4,0-2.9,0-4.3c-5,3-9.8,6.3-12.5,11.6
			c1.4,0.8,2.9,1.7,4.3,2.5c0.9-2.2,1.8-4.3,2.8-6.5c1.1-2.5-1.7-5.1-3.9-3c-2.1,2-4.1,4-5.9,6.2c1.4,0.8,2.8,1.6,4.2,2.4
			c1.5-4.7,3.5-9.1,5.9-13.4c-1.5-0.6-3-1.3-4.6-1.9c-0.1,0.4-0.2,0.8-0.4,1.2c1-0.6,2.1-1.2,3.1-1.7c-3.3-1.3-4.4,1.8-5.7,4.1
			c1.6,0.4,3.1,0.8,4.7,1.3c-0.1-1.8-0.5-3.2-1.3-4.8c-1-2-4-1.4-4.6,0.6c-1.2,4.4-2.5,8.8-3.7,13.2c1.6,0.4,3.2,0.9,4.8,1.3
			c0.8-3.6,1.9-7,3.4-10.4c-1.5-0.6-3-1.3-4.6-1.9c-0.8,3.6-1.9,6.9-3.4,10.3c1.6,0.4,3.1,0.8,4.7,1.3c0-4,0-7.9,0-11.9
			c-1.7,0-3.3,0-5,0c0,2.6-0.1,5-0.6,7.5c1.5-0.2,3-0.4,4.6-0.6c-1.4-2.4-1.7-4.3-1-7c0.5-1.7-1.2-3.7-3.1-3.1
			c-2.7,0.9-5.4,2.3-5.7,5.4c-0.1,1.1,0.2,2,0.6,3c0.4,1.1,1.4,0.7,0.9,1.9c-0.6,1.4-4.3,1.8-4.9,1.8c0,1.7,0,3.3,0,5
			c5.8-0.2,11.8-0.1,17.6-0.5c3.1-0.2,5.5-0.8,7.3-3.5c-0.7,0.4-1.4,0.8-2.2,1.2c2.9,0.1,5.6-0.3,8.4-1.2c2.6-0.8,2.3-5.1-0.7-4.9
			c-1.2,0.2-2.3,0.1-3.5-0.4c0.2,1.5,0.4,3,0.6,4.6c2.7-2,5.3-4.2,7.8-6.5c2.2-2-0.6-5.1-3-3.9c-2.5,1.2-7.9,3.6-4.5,7.2
			c2,2.1,7.4,1.5,9.2-0.5c0.8-0.9,0.9-1.9,0.4-3c-2.7-6.2-11.8-6.9-17-3.8c-1.9,1.1-4.6,3.2-4.4,5.7c0.2,2.6,2.7,3.3,4.9,3.1
			C256.8,517.2,256.8,512.2,253.6,512.5L253.6,512.5z"/>
	</g>
</g>
<g>
	<g>
		<path class="st59" d="M255.3,519c-0.1,1.8-0.2,3.6-0.2,5.4c-0.1,1.8,2.2,3.3,3.8,2.2c2.5-1.8,5.1-3.9,8-4.9
			c3.2-1.1,6.5-0.5,9.8-0.8c2.2-0.2,3.3-2.6,1.8-4.3c-2.3-2.6-8.9-4.2-6.7-8.9c-1.5-0.6-3-1.3-4.6-1.9c-2,5.5-3.2,11.1-3.6,17
			c-0.1,1.4,1.2,2.5,2.5,2.5c8.5,0.2,13.3-19.9,3-17.3c-2.4,0.6-2.3,4.2,0,4.8c3.9,1.1,7.6,0.1,10.3-2.9c1.1-1.2,0.9-3.9-1.1-4.2
			c-3.9-0.6-7.5,1.4-8.2,5.5c-0.3,1.7,1.1,3.8,3.1,3.1c3.1-1.1,8.8-5.5,5.3-9.2c-3.1-3.4-7.5,0.3-8.1,3.8c-0.6,3.8,3.8,6.1,6,2.6
			c2.6-4.1-2.1-8.4-6-8.2c-2.6,0.1-3.2,3.2-1.3,4.7c2.9,2.1,6.4,2.1,9.4,0.3c-1-1.3-2-2.6-3-3.9c-5.9,5.7-9.2,13.4-9.3,21.6
			c0,2.8,4.3,3.5,4.9,0.7c0.6-2.6,0.5-5.1,0.2-7.7c-0.1-1.2-1-3.2-0.5-4.3c0.2-0.6,2.5-2.3,2.3-1.8c-1,3.1,3.9,4.4,4.8,1.3
			c0.7-2.1,0.7-4.3-1.1-5.8c-2-1.7-4.9-0.6-7,0.3c-7.1,2.9-2.3,11-3.5,16.7c1.6,0.2,3.3,0.4,4.9,0.7c0.1-7,2.8-13.2,7.8-18.1
			c2-2-0.6-5.4-3-3.9c-1.5,0.9-3,0.8-4.3-0.3c-0.4,1.6-0.8,3.1-1.3,4.7c0.9-0.1,1.8-0.1,2.6-0.2c0.7,0.4,1.4,0.8,2.2,1.2
			c0.3,0.7,0,0.7-0.8-0.2c-0.8-1-1.7-0.9-2.6,0.3c1,1,2.1,2.1,3.1,3.1c0.2-1.5,0.9-2.2,2.1-2c-0.4-1.4-0.7-2.8-1.1-4.2
			c-1.5,1.7-3.2,2.2-5.4,1.6c0,1.6,0,3.2,0,4.8c0.1,0-1.5,4.1-1.7,4.5c-0.5,0.9-1.6,3.1-2.6,3c0.8,0.8,1.7,1.7,2.5,2.5
			c0.4-5.4,1.5-10.6,3.4-15.6c1-2.6-3.3-4.5-4.6-1.9c-1.3,2.7-1.5,5.5-0.1,8.3c1.8,3.4,5.2,4,7.5,6.6c0.6-1.4,1.2-2.8,1.8-4.3
			c-3.7,0.3-7.5-0.2-11.1,1c-3.4,1.1-6.4,3.3-9.2,5.4c1.3,0.7,2.5,1.4,3.8,2.2c0.1-1.8,0.2-3.6,0.2-5.4
			C260.5,515.8,255.5,515.8,255.3,519L255.3,519z"/>
	</g>
</g>
<g>
	<g>
		<path class="st59" d="M275.9,511.4c-3.7-1.5-7-3.4-10.2-5.7c-1.9-1.3-3.6-2.6-5.9-2.9c-1.3-0.2-2.6,0-4,0.2
			c-2.5,0.3-4.2-0.1-6.7-0.4c-1.9-0.2-3.3-0.1-4.9,1c1.2,0.9,2.4,1.9,3.7,2.8c2-7,19-2,23.8-0.9c-0.2-1.5-0.4-3-0.6-4.6
			c-2,1-4.5,2.2-6.8,1.1c-0.2,1.5-0.4,3-0.6,4.6c4.7-0.8,9.3-0.9,14.1-0.5c-0.4-1.6-0.8-3.1-1.3-4.7c-2.9,1.7-5.5,3.7-7.9,6.1
			c1.3,1,2.6,2,3.9,3c2.6-3.7,4.9-7.4,6.9-11.4c0.9-1.7-0.2-3.7-2.2-3.8c-5.5-0.3-10.1,5-14.2,8.2c1.3,1,2.6,2,3.9,3
			c2.6-4.2,5.3-8.5,7.9-12.7c0.7-1.1,0.2-2.8-0.9-3.4c-5.6-3.3-10.9,4.8-13.7,8.4c1.4,0.8,2.8,1.6,4.2,2.4c1.7-4.1,3.8-7.7,6.4-11.3
			c1-1.4-0.1-3.2-1.5-3.7c-6.1-1.9-11.9,8.9-14.5,13.1c1.5,0.2,3,0.4,4.6,0.6c-0.8-2.7,5-8.8,6.4-10.9c1.5-2.1-1.4-4.6-3.4-3.4
			c-2.3,1.4-4.4,3-6.2,5c-1.8,2.1-2.9,4.7-5.4,6.1c1.1,1.1,2.3,2.3,3.4,3.4c1.6-3.1,3.1-6.2,4.7-9.3c1-2-1.2-5.1-3.4-3.4
			c-3,2.3-5.4,4.8-7.3,8c-1.7,2.8,2.7,5.3,4.3,2.5c1.5-2.5,3.2-4.5,5.5-6.2c-1.1-1.1-2.3-2.3-3.4-3.4c-1.6,3.1-3.1,6.2-4.7,9.3
			c-1.1,2.2,1.2,4.7,3.4,3.4c4.8-2.6,6.8-8.2,11.6-11.1c-1.1-1.1-2.3-2.3-3.4-3.4c-2.8,4.1-8.4,9.3-6.9,14.7
			c0.6,2.1,3.5,2.4,4.6,0.6c0.9-1.5,6.8-11.5,8.9-10.8c-0.5-1.2-1-2.4-1.5-3.7c-2.8,3.9-5.1,8-6.9,12.5c-0.9,2.3,2.7,4.3,4.2,2.4
			c0.8-1.1,6.3-8.5,7.7-7.6c-0.3-1.1-0.6-2.3-0.9-3.4c-2.6,4.2-5.3,8.5-7.9,12.7c-1.6,2.6,1.8,4.7,3.9,3c2.7-2.1,7-6.9,10.6-6.7
			c-0.7-1.3-1.4-2.5-2.2-3.8c-2,4-4.3,7.8-6.9,11.4c-1.7,2.4,2,5,3.9,3c2.1-2.1,4.3-3.8,6.9-5.3c2.2-1.3,1.1-4.5-1.3-4.7
			c-5.2-0.4-10.3-0.1-15.4,0.7c-2.1,0.3-2.5,3.7-0.6,4.6c4.2,2,7.8,0.8,11.9-1.1c2-0.9,1.4-4.1-0.6-4.6c-8.2-2-26.6-7.3-29.9,4.4
			c-0.6,2,1.8,4.1,3.7,2.8c1.2-0.8,5.6,0.6,7.2,0.5c3.1-0.2,5.2-0.8,8.1,1c4.2,2.5,8,5.1,12.5,7
			C277.5,517.4,278.8,512.6,275.9,511.4L275.9,511.4z"/>
	</g>
</g>
<g>
	<g>
		<path class="st93" d="M241.7,528.8c0.9,0.1,0.8,0.6,0.5-0.6c-0.2-0.9-0.7-1.3-0.8-0.1c0.1-1.6,1.3-3,1.1-4.8
			c-0.3-2.8-2.9-2.8-5.3-3.2c-0.3,0-2.5-0.6-2.7-0.4c0.2,1.1,0.5,2.1,0.7,3.2c0.4-0.1,0.7-0.3,1.1-0.4c1.2-0.2,3.3-1.3,4.1-2.2
			c2.3-2.3,0.6-5.5,0.6-8.3c0-3.2-5-3.2-5,0c0,1.2,0.4,2.5,0.3,3.7c-0.1,1.9-0.7,1.7-2.5,2.4c-1.5,0.6-3.1,1-3.6,2.8
			c-1.4,4.9,6.1,3.4,8.3,4.5c-0.4-0.7-0.8-1.4-1.2-2.2c0.2,1.3-0.8,2.4-0.9,3.6c-0.1,1.2,0.5,2.5,0.9,3.7c0.7,2.2,1.9,3.1,4.2,3.4
			C245,534.1,244.9,529.1,241.7,528.8L241.7,528.8z"/>
	</g>
</g>
<g>
	<g>
		<path class="st93" d="M241.5,511c-1.2,1.2-1.3,1.6-0.4,1.2c0.2-0.1,0.4-0.1,0.5-0.2c0.6-0.2,1.2-0.4,1.7-0.6
			c1-0.5,1.8-1.2,2.5-2.1c1.3-1.7,1.6-3.8,2.6-5.6c1.5-2.8-2.8-5.4-4.3-2.5c-0.9,1.6-1.2,4.6-2.7,5.7c-0.9,0.6-2.2,0.6-3.1,1.1
			c-1.2,0.6-1.8,1.7-1.8,3.1C236.5,514.2,241.5,514.2,241.5,511L241.5,511z"/>
	</g>
</g>
<g>
	<g>
		<path class="st93" d="M248,492.5c-0.5,2.6-1.6,5.2-2.7,7.6c-0.6,1.2-0.4,2.7,0.9,3.4c1.1,0.6,2.9,0.3,3.4-0.9
			c1.3-2.8,2.6-5.8,3.2-8.8C253.5,490.7,248.6,489.4,248,492.5L248,492.5z"/>
	</g>
</g>
<g>
	<g>
		<path class="st93" d="M248.8,489.6c0,0.3,0,0.5,0,0.8c0,0.5,0.1,0.3,0.2-0.6c0.3-0.3,0.3-0.3,0,0c-0.4,0.5-0.6,0.9-0.8,1.4
			c-0.3,0.6-0.4,1.2-0.3,1.9c0.2,0.6,0.6,1.2,1.1,1.5c1.1,0.6,2.9,0.4,3.4-0.9c0.1-0.3,0.2-0.5,0.4-0.8c0.2-0.3,0.2-0.3,0,0
			c0.2-0.2,0.4-0.4,0.5-0.7c0.5-0.8,0.4-1.7,0.4-2.6c0-1.3-1.1-2.6-2.5-2.5C249.9,487.2,248.8,488.2,248.8,489.6L248.8,489.6z"/>
	</g>
</g>
<g>
	<g>
		<path class="st106" d="M629.9,326.3c-0.7-0.6-1.4-1.2-2.1-1.8c-0.4,0.9-0.8,1.9-1.1,2.8c4.1-2.2,7-2.7,10.9-0.4c3.7,2.1,7,3.9,9,8
			c1.4-0.8,2.9-1.7,4.3-2.5c-1.3-1.9-1.4-4.2-4-4.4c-1.4-0.1-2.5,0.7-3.8,1c-2.3,0.7-4.1,0-6.1-1.5c-0.2,1.5-0.4,3-0.6,4.6
			c0.9-0.1,1.7-0.2,2.6-0.3c0-1.7,0-3.3,0-5c-0.7,0.1-1.3,0.1-2,0.2c0.2,1.6,0.4,3.3,0.7,4.9c1.2-0.1,2.3,0.1,3.3,0.7
			c0.4-1.6,0.9-3.2,1.3-4.8c-3.5-1.3-7-3-10.6-3.8c-0.7-0.2-2-0.5-2.8-0.3c-1.3,0.2-2.6,1.6-3.8,1.6c-1.3,0-2.5,1.2-2.5,2.5
			c0,4.3,0.1,8.5,0.1,12.8c0,3.2,5,3.2,5,0c0-4.3-0.1-8.5-0.1-12.8c-0.8,0.8-1.7,1.7-2.5,2.5c2.2,0.1,3.6-1.3,5.3-1.4
			c1-0.1,3.7,1.3,4.6,1.6c2,0.7,4,1.5,6,2.2c3.1,1.1,4.3-3.6,1.3-4.8c-2.2-0.9-3.7-1.1-5.9-0.7c-2.8,0.4-2.1,5.1,0.7,4.9
			c0.7-0.1,1.3-0.1,2-0.2c3.2-0.3,3.3-5,0-5c-1.7,0-2.2,0.1-3.9,0.4c-2.3,0.5-2.2,3.4-0.6,4.6c1.7,1.3,4.8,2.8,6.9,2.8
			c1,0,1.8-0.3,2.8-0.6c2.2-0.6,0.9-1.7,2.5,0.8c1.8,2.7,5.7,0.4,4.3-2.5c-2.5-5-7.1-8-11.8-10.5c-2.1-1.1-4.6-1.8-7-1.9
			c-3.2-0.2-5.3,1.7-8,3.1c-0.9,0.5-1.5,1.8-1.1,2.8c1.1,2.7,2.8,4.4,5.6,5.3C631.6,332,633,327.2,629.9,326.3L629.9,326.3z"/>
	</g>
</g>
<g>
	<g>
		<path class="st1" d="M507.4,768.1c3.2,0.5,6.4,1.1,9.5,1.9c1.7,0.4,3.9,1.5,5.5,0.1c2.5-2.3-0.6-6.5-3-7.3
			c-1.1-0.4-2.2,0.3-2.8,1.1c-1.2,1.6-1,3.9-1.6,5.7c-0.9,2.5-1.2,5.5-1.3,8.2c-0.1,2.2,0.6,3.5,2.5,4.3c2.5,1,4.8,3.1,7.4,3.6
			c1.7,0.3,3.8-1.1,3.1-3.1c-0.8-2.1-1.6-4.1-2.5-6.2c-0.7-1.6-2.4-4.1-2.4-5.8c0.1-2.8-4.2-3.4-4.9-0.7c-0.7,2.9-2.1,7-1.3,9.9
			c0.4,1.4,1.8,2,3.1,1.7c1.3-0.3,2.4-1.4,3.4-2.3c2.4-2.2-1.1-5.7-3.5-3.5c-0.4,0.4-0.8,0.7-1.2,1c1,0.6,2.1,1.2,3.1,1.7
			c-0.5-1.9,0.8-5.4,1.3-7.3c-1.6-0.2-3.3-0.4-4.9-0.7c0,2,1,3.5,1.8,5.3c1.2,2.6,2.2,5.3,3.3,8c1-1,2.1-2.1,3.1-3.1
			c-3.1-0.6-5.1-4-8.4-3.7c0.7,0.4,1.4,0.8,2.2,1.2c-0.7-0.9,0.8-6.3,1.1-7.2c0.4-1.2,0.5-3.9,1.2-4.8c-0.9,0.4-1.9,0.8-2.8,1.1
			c0.1-0.2,0.3-0.3,0.4-0.5c0.7-0.4,1.4-0.8,2.2-1.2c-1.8-0.1-4-1.1-5.7-1.4c-2-0.4-4.1-0.8-6.2-1.1
			C505.5,762.8,504.2,767.6,507.4,768.1L507.4,768.1z"/>
	</g>
</g>
<g>
	<g>
		<path class="st95" d="M761,494.1c-1.3-0.2-2.6-0.4-4-0.7c-0.6-0.1-1.2-0.2-1.8-0.3c-0.3-0.1-0.6-0.1-0.9-0.2
			c-0.8-0.3-0.7,0,0.2,0.9c-0.1,0.4-0.2,0.8-0.3,1.3c0.1-0.1,0.1-0.2,0.2-0.3c1.7-2.8-2.7-5.3-4.3-2.5c-1.3,2.1,0,4.6,2.3,5.3
			c2.4,0.7,5,0.9,7.4,1.3C762.8,499.4,764.1,494.6,761,494.1L761,494.1z"/>
	</g>
</g>
<g>
	<g>
		<path class="st95" d="M757.6,503.3c0.7,0,1.5,0,2.2,0c1.9,0,3.9-0.8,5.3-2.2c0.7-0.7,1.2-1.5,1.6-2.4c0.5-0.9,0.7-1.9,0.6-2.9
			c-0.1-1.9-0.7-4-2.2-5.3c-1.5-1.3-3.3-2.2-5.3-2.2c-0.7,0-1.5,0-2.2,0c-1.9,0-3.9,0.8-5.3,2.2c-0.7,0.7-1.2,1.5-1.6,2.4
			c-0.5,0.9-0.7,1.9-0.6,2.9c0.1,1.9,0.7,4,2.2,5.3C753.8,502.4,755.6,503.3,757.6,503.3L757.6,503.3z"/>
	</g>
</g>
<g>
	<g>
		<path class="st95" d="M759.1,488.1c-0.7-0.1-1.5-0.2-2.2-0.2c1.5,1.1,3,2.3,4.5,3.4c0.2,0.6,0.4,1.3,0.7,1.9
			c-1.2,2.2-2.5,4.3-3.7,6.5c1.1-0.8,3.4-1.1,4.8-1.3c0.9-0.1,5.5,0.2,3.4-0.9c1.5,0.7,3,3.1,4.5,4.1c1.9,1.3,3.8,2.1,5.9,3
			c3.8,1.6,8.2-1.7,9.2-5.2c1.2-4.3-1.5-7.7-5.2-9.2c-1.9-0.8-3-2.6-4.5-3.9c-1.9-1.7-4.2-2.6-6.7-2.9c-4.8-0.7-10.7,0.2-15.2,1.8
			c-4.8,1.7-8.3,5.1-7.1,10.6c1.4,6.2,6.4,6.9,11.9,7.3C768.8,503.9,768.7,488.9,759.1,488.1L759.1,488.1z"/>
	</g>
</g>
<g>
	<g>
		<path class="st95" d="M787.3,494.7c-1,0.4-2,0.9-3,1.3c-1.2,0.5-1.6,2.4-0.9,3.4c0.8,1.2,2.1,1.5,3.4,0.9c1-0.4,2-0.9,3-1.3
			c1.2-0.5,1.6-2.4,0.9-3.4C790,494.4,788.6,494.2,787.3,494.7L787.3,494.7z"/>
	</g>
</g>
<g>
	<g>
		<path class="st95" d="M774.6,489.1c-1.1-0.8-0.2,0,0.1,0.5c0.5,0.7,1,1.5,1.4,2.2c0.7,1.2,1.6,1.9,3,2.3c2.8,0.8,4.2-3,1.9-4.6
			c-0.2-0.1-0.4-0.3-0.6-0.4c-2.3-1.6-5.3,2.1-3,3.9c2.7,2.2,5.9,3.7,8.9,5.2c2.9,1.5,5.4-2.9,2.5-4.3c-2.6-1.3-5.6-2.6-7.9-4.5
			c-1,1.3-2,2.6-3,3.9c0.2,0.1,0.4,0.3,0.6,0.4c0.6-1.5,1.3-3,1.9-4.6c-0.2-0.1-1.3-2-1.6-2.3c-0.5-0.9-0.8-1.5-1.7-2.1
			C774.4,482.9,771.9,487.2,774.6,489.1L774.6,489.1z"/>
	</g>
</g>
<g>
	<g>
		<path class="st95" d="M788.4,500.4c5.2,3.4,11.6,5.3,17.7,6.1c3.2,0.4,4.4-3.6,1.3-4.8c-5.9-2.3-11.6-4.6-17.3-7.4
			c-0.6,1.5-1.3,3-1.9,4.6c6.9,2.5,14,3.8,21,6c3.1,1,4.4-3.9,1.3-4.8c-7-2.2-14.1-3.5-21-6c-2.6-1-4.5,3.4-1.9,4.6
			c6.1,2.9,12.2,5.4,18.5,7.9c0.4-1.6,0.9-3.2,1.3-4.8c-5.7-0.8-11.6-2.5-16.5-5.6C788.2,494.3,785.7,498.6,788.4,500.4L788.4,500.4
			z"/>
	</g>
</g>
<g>
	<g>
		<path class="st95" d="M806.7,504.1c12.3,2,23.8,6,35.3,10.6c3,1.2,4.3-3.6,1.3-4.8c-11.5-4.6-23-8.6-35.3-10.6
			C804.8,498.7,803.5,503.5,806.7,504.1L806.7,504.1z"/>
	</g>
</g>
<g>
	<g>
		<path class="st95" d="M810.6,507.4c5.3,0.8,10.8,3,15.7,5c5,2,10.9,2.5,15.6,5.1c2.8,1.6,5.3-2.7,2.5-4.3
			c-5.2-2.9-11.4-3.4-16.9-5.6c-4.9-2-10.3-4.1-15.6-4.9C808.8,502.1,807.5,506.9,810.6,507.4L810.6,507.4z"/>
	</g>
</g>
<g>
	<g>
		<path class="st95" d="M843.4,515.2c-0.4,0,2,1,2.4,1.2c1.5,0.8,2.9,1.9,4.4,2.6c1.7,0.8,2.6,1.3,3.5,2.9c0.8,1.4,1.6,2.5,2.8,3.7
			c1.7,1.8,4.9,0,4.2-2.4c-1.8-6.5-10.5-7.6-16.1-8.2c-3.2-0.3-3.2,4.7,0,5c3,0.3,10.2,0.7,11.3,4.5c1.4-0.8,2.8-1.6,4.2-2.4
			c-1.4-1.4-2-3.3-3.3-4.8c-1.2-1.4-2.8-2-4.4-2.9c-2.9-1.5-5.6-4-8.9-4.3C840.2,509.8,840.2,514.8,843.4,515.2L843.4,515.2z"/>
	</g>
</g>
<g>
	<g>
		<path class="st95" d="M861.4,527.8c0.3,0,1.4,0.7,1.7,0.8c0.5,0.1,1,0.2,1.5,0.3c1.6,0.3,3.1,0.7,4.6,1.2c3.1,1,4.4-3.9,1.3-4.8
			c-1.9-0.6-3.7-0.9-5.6-1.4c-1.8-0.5-2.9-1.3-4.8-0.9C856.9,523.6,858.3,528.4,861.4,527.8L861.4,527.8z"/>
	</g>
</g>
<g>
	<g>
		<path class="st95" d="M884.4,539.2c-0.4-0.5-0.9-0.9-1.4-1.3c-0.1,1-0.3,2-0.4,3c0,0,0,0.1,0,0.1c1-0.4,1.4-1.8,1.1-2.8
			c-1.1-3.7-3.7-5.9-6.1-8.7c-3.3-3.8-7.1-3.2-11.7-3.5c-2.6-0.1-3.2,3.4-1.3,4.7c4.7,3,10.5,6.1,14,10.5c2,2.5,5.6-1.1,3.5-3.5
			c-3.8-4.7-10-8-15-11.3c-0.4,1.6-0.8,3.1-1.3,4.7c1.4,0.1,2.9-0.1,4.3,0c2.2,0.1,3.1,1.2,4.5,2.7c1.6,1.7,3.6,3.5,4.2,5.8
			c0.4-0.9,0.8-1.9,1.1-2.8c-0.4,0.2-0.7,0.4-1,0.7c-0.8,0.9-0.9,2-0.4,3c0.4,0.9,1.4,1.6,2.1,2.3
			C883.1,545.1,886.6,541.5,884.4,539.2L884.4,539.2z"/>
	</g>
</g>
<g>
	<g>
		<path class="st95" d="M873,526.9c-0.3,0-0.2,0,0.2,0c0.4,0.2,0.4,0.2,0.2,0.1c0.2,0.1,0.4,0.3,0.5,0.5c0-0.1-0.1-0.1-0.1-0.2
			c-0.6-1-1.5-1.3-2.5-1.4c0.4,0.1,0.8,0.2,1.3,0.3c0,0-0.1,0-0.1-0.1c-1.2-0.6-2.8-0.4-3.4,0.9c-0.6,1.1-0.4,2.8,0.9,3.4
			c0.2,0.1,0.5,0.2,0.7,0.3c0.8,0.1,0.9,0.1,0.3,0c-0.4-0.2-0.7-0.4-1.1-0.6c-0.3-0.4-0.3-0.4-0.2-0.2c0.2,0.2,0.3,0.4,0.5,0.6
			c0.2,0.3,0.5,0.5,0.8,0.7c0.6,0.4,1.3,0.6,2.1,0.6c1.3,0,2.6-1.1,2.5-2.5C875.5,528.1,874.4,526.9,873,526.9L873,526.9z"/>
	</g>
</g>
<g>
	<g>
		<path class="st95" d="M875,540.2c0.3,1.4,1.3,1.9,2.3,2.6c0.7,0.6,1.4,1.5,1.8,2.4c0.8,1.6,3.5,1.7,4.3,0c0.3-0.6,0.6-0.8,1-1.2
			c0.6-0.7,0.9-1.7,0.7-2.7c-0.3-1.4-1.4-2.7-2.1-3.9c-1.6-2.8-5.9-0.3-4.3,2.5c0.5,0.8,1.3,1.9,1.6,2.7c0-0.4,0-0.9,0-1.3
			c0.3-0.5,0.3-0.6,0-0.2c-0.2,0.2-0.3,0.3-0.4,0.5c-0.3,0.3-0.5,0.7-0.7,1.1c1.4,0,2.9,0,4.3,0c-0.5-1-1.2-1.8-1.9-2.6
			c-0.3-0.3-0.6-0.7-0.9-0.9c-0.2-0.2-0.5-0.4-0.8-0.6c-0.1-0.1-0.2-0.1-0.3-0.2c-0.3-0.2-0.2,0,0.3,0.5c-0.3-1.3-1.8-2.1-3.1-1.7
			C875.4,537.5,874.7,538.9,875,540.2L875,540.2z"/>
	</g>
</g>
<g>
	<g>
		<path class="st23" d="M498.7,262.7c-0.1-0.2-0.3-0.4-0.4-0.5c0.2,0.8,0.4,1.6,0.6,2.4c-0.1,0.3,2.7-0.9,3.5-1.5
			c1.6-1.3,1.8-2.8,2.1-4.7c0.7-4.8,1.8-12.1,0-16.7c-0.4-1-1.2-1.8-2.4-1.8c-0.8,0-1.4,0.4-2,0.5c-3.8,0.5-4.6-0.3-6.5-2.6
			c-1.8-2-4.6,0.2-4.2,2.4c1.2,6.1,2.4,12.2,4.4,18.1c0.9,2.6,2,6,5.4,5.5c6.8-0.9,2.1-15.7-1.2-18.5c-0.6,1.4-1.2,2.8-1.8,4.3
			c1.2-0.2,2.4-0.2,3.6-0.2c3.2,0,3.2-5,0-5c-1.2-0.1-2.4,0-3.6,0.2c-1.9,0.2-3.6,2.7-1.8,4.3c2.1,1.8,2.3,4.8,2.6,7.4
			c0.2,1.3-0.3,3.5,1.3,2.9c1.5-0.6,0.2-2.4-0.3-3.9c-1.6-5.3-2.7-10.8-3.8-16.3c-1.4,0.8-2.8,1.6-4.2,2.4c1.9,2.2,3.9,4.4,6.9,4.9
			c1.2,0.2,2.6,0.2,3.7-0.3c0.6-0.2,1.2-0.6,1.7-1c0.8-0.5,0.7-0.5-0.3,0c-0.8-0.6-1.6-1.2-2.4-1.8c1.1,2.8,0.5,7.1,0.4,10.1
			c-0.1,1.3,0.2,4.8-0.6,5.8c-0.7,0.9-1.9,0.9-2.8,1.4c-2.5,1.4-3.3,3.6-1.4,5.9C497.2,268.7,500.7,265.1,498.7,262.7L498.7,262.7z"
			/>
	</g>
</g>
<g>
	<g>
		<path class="st23" d="M499.4,220.1c-0.4,6.9-0.7,13.8-1.1,20.7c-0.1,2.7,3.3,3,4.7,1.3c0.1,0.1,0.2,0.2,0.2,0.2
			c-0.7-1.3-1.4-2.5-2.2-3.8c0.3-0.3,0.6-0.5,0.9-0.8c1.1,0.8,2.1,1.6,3.2,2.4c0.8-7.4-2.8-16.3,2.1-22.7c-1.5-0.6-3-1.3-4.6-1.9
			c-0.6,4.1,0.1,7.7,0.2,11.9c0.1,4.8-0.1,9.5,0.5,14.3c0.4,3.2,5.4,3.2,5,0c-0.5-4.1-0.5-8.2-0.5-12.4c0.1-4.2-0.9-8.3-0.3-12.4
			c0.4-2.8-2.8-4.3-4.6-1.9c-5.6,7.5-1.8,16.6-2.8,25.2c-0.2,1.8,1.7,2.6,3.2,2.4c1-0.2,1.5-0.7,2.1-1.5c1.2-1.7-0.5-3.5-2.2-3.8
			c-2.1-0.3-3.3,0.6-4.5,2.2c1.6,0.4,3.1,0.8,4.7,1.3c0.4-6.9,0.7-13.8,1.1-20.7C504.6,216.9,499.6,216.9,499.4,220.1L499.4,220.1z"
			/>
	</g>
</g>
</svg>
